<?xml version="1.0" encoding="UTF-8" standalone="no"?>
<!-- Created with Inkscape (http://www.inkscape.org/) -->

<svg
   width="640mm"
   height="640mm"
   viewBox="0 0 640 640"
   version="1.1"
   id="svg1"
   xml:space="preserve"
   inkscape:export-filename="..\bitmap.png"
   inkscape:export-xdpi="96"
   inkscape:export-ydpi="96"
   inkscape:version="1.4.2 (f4327f4, 2025-05-13)"
   sodipodi:docname="Rover.svg"
   xmlns:inkscape="http://www.inkscape.org/namespaces/inkscape"
   xmlns:sodipodi="http://sodipodi.sourceforge.net/DTD/sodipodi-0.dtd"
   xmlns:xlink="http://www.w3.org/1999/xlink"
   xmlns="http://www.w3.org/2000/svg"
   xmlns:svg="http://www.w3.org/2000/svg"><sodipodi:namedview
     id="namedview1"
     pagecolor="#ffffff"
     bordercolor="#000000"
     borderopacity="0.25"
     inkscape:showpageshadow="2"
     inkscape:pageopacity="0.0"
     inkscape:pagecheckerboard="0"
     inkscape:deskcolor="#d1d1d1"
     inkscape:document-units="mm"
     inkscape:zoom="0.11313708"
     inkscape:cx="5378.431"
     inkscape:cy="243.06796"
     inkscape:window-width="1920"
     inkscape:window-height="991"
     inkscape:window-x="-9"
     inkscape:window-y="-9"
     inkscape:window-maximized="1"
     inkscape:current-layer="layer1" /><defs
     id="defs1"><linearGradient
       id="linearGradient19"
       inkscape:collect="always"><stop
         style="stop-color:#212178;stop-opacity:1;"
         offset="0"
         id="stop19" /><stop
         style="stop-color:#adade9;stop-opacity:1;"
         offset="1"
         id="stop20" /></linearGradient><inkscape:perspective
       sodipodi:type="inkscape:persp3d"
       inkscape:vp_x="0 : 491.49998 : 1"
       inkscape:vp_y="0 : 999.99994 : 0"
       inkscape:vp_z="210 : 491.49998 : 1"
       inkscape:persp3d-origin="105 : 441.99998 : 1"
       id="perspective1" /><linearGradient
       inkscape:collect="always"
       xlink:href="#linearGradient19"
       id="linearGradient20"
       x1="35.191432"
       y1="116.63719"
       x2="118.52248"
       y2="116.63719"
       gradientUnits="userSpaceOnUse" /><linearGradient
       inkscape:collect="always"
       xlink:href="#linearGradient19"
       id="linearGradient1"
       gradientUnits="userSpaceOnUse"
       x1="35.191432"
       y1="116.63719"
       x2="118.52248"
       y2="116.63719" /></defs><g
     inkscape:label="Layer 1"
     inkscape:groupmode="layer"
     id="layer1"><rect
       style="fill:#1a1a1a;fill-opacity:1;stroke:none;stroke-width:13.2292"
       id="rect1"
       width="639.60938"
       height="640"
       x="-6.2931811e-16"
       y="0" /><path
       sodipodi:type="star"
       style="fill:url(#linearGradient20);stroke-width:1.81303456;stroke:none;stroke-dasharray:none"
       id="path6"
       inkscape:flatsided="true"
       sodipodi:sides="6"
       sodipodi:cx="76.856956"
       sodipodi:cy="116.63719"
       sodipodi:r1="42.511993"
       sodipodi:r2="21.255997"
       sodipodi:arg1="0.84730899"
       sodipodi:arg2="1.3709078"
       inkscape:rounded="0"
       inkscape:randomized="0"
       d="M 105,148.5 63.334476,156.94119 35.191432,125.07838 48.713912,84.774382 90.379437,76.333196 118.52248,108.19601 Z"
       inkscape:transform-center-x="15.248957"
       inkscape:transform-center-y="-16.854894"
       transform="matrix(6.9191792,-2.3166288,2.3166288,6.9191792,-481.99212,-308.98459)" /><path
       sodipodi:type="star"
       style="fill:none;stroke:#f9f9f9;stroke-width:3.06824;stroke-dasharray:none"
       id="path6-5"
       inkscape:flatsided="true"
       sodipodi:sides="6"
       sodipodi:cx="76.856956"
       sodipodi:cy="116.63719"
       sodipodi:r1="42.511993"
       sodipodi:r2="21.255997"
       sodipodi:arg1="0.84730899"
       sodipodi:arg2="1.3709078"
       inkscape:rounded="0"
       inkscape:randomized="0"
       d="M 105,148.5 63.334476,156.94119 35.191432,125.07838 48.713912,84.774382 90.379437,76.333196 118.52248,108.19601 Z"
       inkscape:transform-center-x="13.512306"
       inkscape:transform-center-y="-14.943498"
       transform="matrix(6.1311896,-2.0539143,2.0527998,6.1345176,-388.95974,-235.78139)" /><path
       style="fill:#ffffff;fill-opacity:1;stroke-width:2.67961"
       d="m 1101.9911,521.39015 c -20.3464,-1.69966 -43.6985,-7.0778 -47.2172,-10.87464 -1.8915,-2.04092 -1.9747,-5.65909 -0.1824,-7.93744 2.0427,-2.59695 4.6158,-2.69979 11.8321,-0.47269 15.6831,4.83971 27.7021,6.62379 44.7368,6.6408 12.7805,0.0141 19.5755,-0.62357 30.6695,-2.87356 18.9556,-3.84384 38.8225,-12.40697 55.0835,-23.74226 l 4.811,-3.35357 -0.8992,-3.33033 c -1.2589,-4.66223 -0.7313,-10.42281 1.3425,-14.66156 4.3761,-8.94444 13.8638,-13.76635 23.2661,-11.82428 4.7649,0.98413 6.7448,1.96445 10.113,5.00741 3.4814,3.14521 5.4015,6.34593 6.5899,10.98497 1.2573,4.90765 0.7649,9.22639 -1.618,14.18994 -2.2311,4.64753 -5.5746,7.88889 -10.4744,10.15423 -4.9856,2.30505 -12.2411,2.43589 -16.989,0.30628 l -3.0771,-1.38012 -5.1926,3.71423 c -20.649,14.77003 -46.2628,24.81579 -72.0529,28.25902 -6.8995,0.92112 -25.4029,1.63961 -30.7415,1.19369 z m 124.2743,-44.16724 c 5.2998,-3.47257 5.1615,-11.11142 -0.2669,-14.73782 -7.6185,-5.08958 -17.0437,4.99763 -11.6065,12.42175 2.7082,3.69783 8.1458,4.75852 11.8734,2.31607 z m -190.1765,25.72848 c -2.1655,-1.34296 -3.2675,-3.94665 -2.7219,-6.43073 0.4844,-2.20575 3.6133,-5.11769 5.499,-5.11769 2.1357,0 5.362,1.86377 6.1249,3.53817 2.7342,6.00084 -3.3355,11.46239 -8.902,8.01025 z m -39.23038,-12.23494 c -8.5324,-2.01096 -15.5004,-9.56792 -16.6226,-18.0277 -0.4593,-3.46251 0.5316,-9.54725 2.0301,-12.46625 0.8842,-1.72235 0.7992,-1.93275 -2.8289,-7.00501 -24.678,-34.50066 -34.6687,-78.97908 -27.2877,-121.48574 2.0775,-11.96413 7.2704,-29.07427 11.0315,-36.34741 1.1993,-2.31918 4.2866,-3.84153 6.8119,-3.3588 2.1379,0.40822 4.8937,3.54179 4.8937,5.56365 0,0.81889 -1.2977,4.95783 -2.8837,9.19769 -3.4905,9.33098 -6.7577,21.81585 -8.2715,31.60721 -1.3862,8.96644 -1.5568,30.86378 -0.3102,39.81621 3.5036,25.1591 12.0406,47.36415 25.7971,67.09846 l 3.3536,4.81087 3.3303,-0.8992 c 4.66218,-1.25884 10.42278,-0.73131 14.66158,1.34248 8.9444,4.37613 13.7663,13.86386 11.8243,23.26604 -0.9843,4.76508 -1.9645,6.74487 -5.0075,10.11315 -3.088,3.41801 -6.2988,5.37588 -10.6929,6.5204 -3.9808,1.03689 -6.2576,1.0957 -9.82918,0.25411 z m 9.38418,-13.51906 c 5.4675,-3.58247 5.196,-11.33398 -0.5228,-14.92353 -5.6845,-3.56794 -13.72028,1.74492 -12.89048,8.52261 0.7876,6.43297 8.06448,9.90557 13.41328,6.40092 z m 81.4448,1.62835 c -2.6739,-1.64788 -3.4025,-4.16343 -3.4025,-11.74663 v -6.42904 l -6.1656,-2.07307 c -3.391,-1.14016 -8.9858,-3.46541 -12.4328,-5.16727 l -6.2673,-3.09426 -5.5675,5.36708 c -5.2123,5.02464 -5.7395,5.36708 -8.2635,5.36708 -2.6816,0 -2.782,-0.0864 -18.9927,-16.29687 -16.2108,-16.21073 -16.2969,-16.31111 -16.2969,-18.99279 0,-2.52387 0.3424,-3.05112 5.3671,-8.26342 l 5.3671,-5.56749 -3.0943,-6.26731 c -1.7019,-3.44704 -4.0271,-9.04183 -5.1673,-12.43283 l -2.073,-6.16555 h -6.5437 c -7.61978,0 -10.36608,-0.87009 -11.85918,-3.75749 -0.8846,-1.7107 -0.9905,-4.81223 -0.8325,-24.38202 l 0.1812,-22.42206 1.753,-1.7526 c 1.6964,-1.69608 2.0056,-1.75992 9.56148,-1.97353 l 7.8085,-0.22053 2.0002,-6.10703 c 1.1,-3.35884 3.3983,-8.93736 5.1072,-12.39668 l 3.1071,-6.28975 -5.3414,-5.54086 c -4.9987,-5.18523 -5.3414,-5.71387 -5.3414,-8.23685 0,-2.68166 0.086,-2.782 16.2968,-18.99271 16.2107,-16.21078 16.3111,-16.29688 18.9927,-16.29688 2.5219,0 3.052,0.34307 8.209,5.31464 l 5.5131,5.31461 6.0584,-2.97528 c 3.3321,-1.63641 8.9514,-3.95463 12.4873,-5.15157 l 6.4289,-2.17621 v -6.507 c 0,-7.58095 0.8741,-10.33149 3.7575,-11.82247 1.7106,-0.88465 4.8122,-0.99053 24.382,-0.83248 l 22.4221,0.18128 1.7526,1.75306 c 1.6949,1.69528 1.7599,2.00875 1.9724,9.52051 l 0.2199,7.76751 5.4715,1.76384 c 3.0094,0.97006 8.6228,3.25835 12.4742,5.08492 l 7.0027,3.32111 5.4592,-5.27813 c 5.1097,-4.94025 5.6322,-5.27815 8.1604,-5.27815 2.6887,0 2.7774,0.0761 18.9981,16.2968 16.2209,16.22084 16.2969,16.30946 16.2969,18.99807 0,2.52832 -0.3379,3.05077 -5.2781,8.16044 l -5.2782,5.45922 3.3211,7.00273 c 1.8266,3.85142 4.1149,9.46476 5.085,12.47415 l 1.7638,5.47153 7.7675,0.21996 c 7.5117,0.21206 7.8252,0.27783 9.5205,1.97237 l 1.7531,1.75269 0.1807,22.42204 c 0.1578,19.56982 0.052,22.67134 -0.8325,24.38204 -1.491,2.88331 -4.2415,3.75749 -11.8225,3.75749 h -6.507 l -2.1762,6.4289 c -1.1969,3.53593 -3.5189,9.15602 -5.1599,12.48914 l -2.9837,6.06019 5.323,5.45175 c 5.0272,5.14884 5.323,5.60481 5.323,8.20717 v 2.75537 l -16.2969,16.29684 c -16.2107,16.21077 -16.3111,16.29687 -18.9928,16.29687 -2.5229,0 -3.0516,-0.34305 -8.2368,-5.34148 l -5.5408,-5.34139 -6.2898,3.1071 c -3.4593,1.70887 -9.0378,4.00718 -12.3966,5.10723 l -6.107,2.00012 -0.2205,7.80853 c -0.2141,7.55591 -0.2779,7.86512 -1.9737,9.56152 l -1.7526,1.75302 -22.5932,0.16884 c -21.3488,0.15925 -22.7019,0.10132 -24.5659,-1.04712 z m 38.3333,-18.32323 c 0,-8.67604 0.5772,-9.60362 7.1555,-11.50468 9.1072,-2.63175 14.1988,-4.65482 22.5158,-8.94618 6.5122,-3.36014 8.8666,-4.287 10.1178,-3.98309 0.8968,0.21742 3.8387,2.58025 6.5375,5.24966 l 4.9071,4.8536 10.2439,-10.2439 10.2438,-10.24393 -4.875,-5.00956 c -6.2846,-6.45804 -6.3021,-6.8314 -0.8128,-17.31566 3.8089,-7.27499 6.5581,-14.31978 8.8724,-22.73565 1.5161,-5.51295 2.7663,-6.207 11.1804,-6.207 h 6.8707 v -14.54426 -14.54431 h -6.8707 c -8.4078,0 -9.6576,-0.69311 -11.1923,-6.20708 -3.0856,-11.08597 -5.5524,-17.16382 -10.6411,-26.21724 -3.6982,-6.57937 -3.4804,-7.7616 2.5474,-13.82472 l 4.9553,-4.98471 -10.261,-10.26097 -10.261,-10.26097 -4.9846,4.95534 c -6.0632,6.02767 -7.2454,6.24548 -13.8248,2.54733 -9.0534,-5.08866 -15.1312,-7.5556 -26.2174,-10.64107 -5.5138,-1.53463 -6.2069,-2.78445 -6.2069,-11.19233 v -6.87067 h -14.5443 -14.5443 v 6.87067 c 0,8.41413 -0.6941,9.66432 -6.207,11.18034 -8.3898,2.30718 -15.4497,5.05786 -22.63,8.81697 -10.8269,5.66821 -10.818,5.6686 -17.4213,-0.75735 l -5.0096,-4.87509 -10.2439,10.24392 -10.2439,10.24388 4.8536,4.90701 c 2.6695,2.69887 5.0318,5.64081 5.2497,6.53766 0.3039,1.25117 -0.623,3.60553 -3.9831,10.1178 -4.2914,8.31701 -6.3144,13.40861 -8.9462,22.51574 -1.9011,6.57863 -2.8286,7.15554 -11.5047,7.15554 h -6.8707 v 14.54431 14.54426 h 6.8707 c 8.6761,0 9.6036,0.57713 11.5047,7.1556 3.1337,10.84401 5.459,16.35478 11.3897,26.99193 2.7025,4.84725 2.3093,6.14625 -3.6867,12.17915 l -4.877,4.90705 10.2439,10.2439 10.2439,10.24392 4.9241,-4.77575 c 5.6331,-5.46316 7.4787,-6.22376 10.8459,-4.46946 1.2644,0.65872 5.0023,2.62787 8.3063,4.3759 5.9465,3.14596 11.2347,5.18613 20.036,7.72947 6.5787,1.90106 7.1556,2.82864 7.1556,11.50468 v 6.8707 h 14.5443 14.5443 z m -23.8137,-47.13952 c -6.3947,-1.22209 -10.5805,-2.66876 -15.9138,-5.50038 -13.8161,-7.33524 -23.2476,-19.18107 -27.3848,-34.39503 -1.9454,-7.15372 -1.9539,-19.97781 -0.018,-27.1915 5.1183,-19.07359 19.8427,-33.78816 38.9904,-38.96402 8.8001,-2.37885 24.5507,-1.78699 30.245,1.13649 2.1216,1.08925 3.6041,4.25057 3.1376,6.69078 -0.1838,0.96024 -1.2141,2.48659 -2.2901,3.39194 -2.0895,1.7583 -2.639,1.77151 -10.857,0.26117 -12.2763,-2.25614 -26.2597,2.14844 -35.495,11.18019 -5.2051,5.09044 -8.3551,10.05434 -10.7509,16.94186 -1.5587,4.48093 -1.7576,5.94746 -1.7576,12.95731 0,7.00992 0.199,8.47639 1.7576,12.95736 4.503,12.94521 13.7036,22.14586 26.6488,26.64881 4.481,1.5587 5.9475,1.75764 12.9574,1.75764 7.0098,0 8.4764,-0.19933 12.9573,-1.75764 10.9146,-3.79656 19.17,-10.96128 24.0698,-20.88939 4.5347,-9.18834 5.732,-17.89207 3.7491,-27.25341 -1.4568,-6.87797 -1.2784,-8.77016 1.0081,-10.69417 2.6849,-2.25921 5.8005,-2.20898 8.1409,0.13158 2.1081,2.10798 3.6377,8.03927 4.2318,16.40894 1.7665,24.88609 -15.8697,48.89329 -40.5613,55.21412 -6.5205,1.66916 -16.8961,2.10821 -22.8652,0.96743 z m 40.8199,-81.59804 c -3.8391,-2.15944 -4.8124,-6.55031 -2.1526,-9.71124 1.8815,-2.23606 4.3497,-2.83708 7.0382,-1.71372 5.9133,2.47073 5.1709,11.20957 -1.0239,12.05143 -1.3075,0.17734 -2.8878,-0.0788 -3.8617,-0.62612 z m 107.7487,100.33818 c -1.9522,-0.31277 -4.6063,-3.66941 -4.6063,-5.82586 0,-0.98587 1.0009,-4.13098 2.2242,-6.98902 8.4374,-19.71272 11.9524,-36.89207 11.9629,-58.46793 0.014,-24.375 -3.8533,-42.32606 -13.7428,-63.82629 -5.9251,-12.88158 -15.5823,-27.95347 -17.4387,-27.21678 -3.5746,1.41851 -7.8089,1.78789 -11.5761,1.00977 -5.0684,-1.04686 -7.848,-2.49798 -11.1938,-5.84373 -5.1176,-5.11757 -7.2669,-12.12067 -5.8402,-19.02859 0.9843,-4.76502 1.9646,-6.74481 5.0076,-10.11306 3.1452,-3.4813 6.346,-5.40152 10.9849,-6.58991 14.8117,-3.79457 28.9135,9.7484 25.8129,24.79002 -0.4244,2.05904 -1.182,4.54283 -1.6833,5.51947 -0.8842,1.7223 -0.7992,1.93277 2.8289,7.00494 30.1443,42.14268 37.9534,98.50293 20.4457,147.56215 -2.8531,7.99484 -6.5716,16.2426 -7.6132,16.88636 -1.2716,0.78581 -4.1159,1.36182 -5.5727,1.12846 z m -24.2642,-175.14668 c 2.4519,-1.79568 3.9668,-5.11163 3.6228,-7.93002 -1.0245,-8.39393 -11.3175,-10.75252 -16.0446,-3.67656 -5.0895,7.61856 4.9977,17.04379 12.4218,11.60658 z m -230.76068,13.4847 c -3.7411,-1.03348 -5.275,-1.89226 -8.3627,-4.68173 -3.4634,-3.12901 -5.385,-6.33617 -6.5717,-10.96847 -3.7946,-14.8117 9.7484,-28.91352 24.78998,-25.81287 2.0591,0.42432 4.5428,1.18189 5.5194,1.68329 1.7224,0.88416 1.9328,0.7992 7.005,-2.82889 38.8205,-27.76803 90.1445,-36.72641 136.6624,-23.85383 6.5474,1.81189 8.5369,3.45454 8.5369,7.04899 0,3.05319 -0.9781,4.61058 -3.5775,5.69675 -2.034,0.84986 -2.7076,0.79554 -8.4162,-0.67867 -24.5963,-6.35172 -47.5542,-6.97703 -71.478,-1.94692 -18.0935,3.80426 -38.0545,12.52573 -53.8188,23.51477 l -4.8109,3.35362 0.8992,3.33028 c 1.2588,4.6622 0.7313,10.42281 -1.3425,14.66155 -4.663,9.53096 -14.9757,14.26077 -25.03458,11.48213 z m 9.96908,-13.0084 c 4.4306,-2.70141 5.8264,-8.06664 3.1434,-12.08288 -3.6264,-5.42838 -11.26528,-5.56672 -14.73788,-0.26709 -4.8793,7.44669 4.0452,16.95257 11.59448,12.34982 z m 170.3913,-32.39608 c -2.7847,-0.72161 -4.736,-3.8165 -4.2959,-6.81376 0.7309,-4.97591 6.8913,-6.85342 10.5342,-3.21047 2.3956,2.39554 2.5002,5.50083 0.2748,8.14579 -1.8026,2.1423 -3.5498,2.64621 -6.5128,1.87844 z"
       id="path8" /><g
       id="g24"
       transform="matrix(1.1635663,0,0,1.1635663,-52.341317,-52.341198)"
       style="stroke-width:0.859427"><path
         id="path7"
         style="fill:#ffffff;fill-opacity:1;stroke-width:2.30293"
         d="m 318.74941,146.36571 c -31.76233,0.31549 -63.47853,9.25739 -90.45415,26.09684 -4.06595,2.4756 -7.89198,5.31341 -11.82958,7.9846 -0.81078,0.52517 -1.88281,1.45679 -2.8581,0.75881 -3.16518,-1.40433 -6.59749,-2.23058 -10.05058,-2.45691 -7.57973,-0.35649 -15.13078,3.29576 -19.74816,9.28218 -4.30653,5.46637 -6.12648,12.90447 -4.42659,19.69789 1.06,4.75857 3.53088,9.22438 7.20518,12.46056 2.40818,2.29231 5.21066,4.2891 8.46812,5.13907 6.23757,2.03943 13.31624,1.48865 19.05658,-1.74582 6.87658,-3.80114 11.76822,-11.11087 12.30496,-18.99178 0.3649,-3.72362 -0.29446,-7.47562 -1.43787,-11.00894 5.32814,-3.72017 10.7345,-7.43279 16.40322,-10.58893 14.96861,-8.40164 31.07565,-14.76169 47.93918,-18.00154 12.97768,-2.52943 26.16521,-3.48269 39.37371,-2.73343 10.66514,0.59191 21.25399,2.31596 31.63261,4.8701 2.68459,0.60117 5.31398,1.52128 8.06025,1.79837 2.14941,0.17668 4.30887,-0.70748 5.9452,-2.06607 1.90104,-1.60433 2.30054,-4.30459 2.08917,-6.65352 -0.14895,-2.03052 -1.33653,-3.883 -3.06259,-4.94279 -2.82474,-1.77923 -6.15538,-2.46128 -9.32419,-3.37466 -14.76247,-3.83791 -30.03438,-5.6671 -45.28637,-5.52403 z m 71.79391,15.90488 c -3.63537,0.0312 -7.01254,3.03133 -7.29716,6.68977 -0.47718,3.90364 2.45246,7.98643 6.41967,8.4733 2.33984,0.54702 4.96827,-0.13107 6.57263,-1.96963 2.11167,-2.06176 3.25677,-5.38107 1.9999,-8.18917 -1.25365,-3.00652 -4.40728,-5.16135 -7.69504,-5.00427 z m 46.57872,16.48846 c -6.07206,0.19498 -12.14839,2.55881 -16.43579,6.92652 -2.4641,2.48925 -4.73204,5.33491 -5.76554,8.73509 -1.29478,4.14483 -1.92149,8.60993 -0.99553,12.90084 1.03901,5.31976 4.03552,10.15789 8.14929,13.65665 2.65948,2.35925 5.93866,3.94612 9.39673,4.72842 4.60019,1.19091 9.54688,1.03866 14.0253,-0.5822 0.56713,-0.16078 0.96264,0.58025 1.37655,0.90096 2.65546,3.06797 4.88328,6.59575 7.03898,10.04746 6.69364,10.9911 12.20374,22.72599 16.31893,34.8787 3.47275,10.22792 5.68274,20.80335 6.69229,31.53863 0.96112,10.04337 1.03549,20.22954 0.46848,30.29257 -0.81534,12.95707 -3.32147,25.77606 -7.61281,38.04276 -1.63928,4.82354 -3.61635,9.52158 -5.53342,14.23774 -0.71226,1.97847 -1.57295,3.9965 -1.60311,6.12372 0.31988,2.68083 2.15332,4.97983 4.3302,6.45957 1.9742,1.09802 4.32548,0.52724 6.37912,-0.006 1.15562,-0.3402 2.32284,-0.90926 2.88674,-2.03022 1.65416,-2.6241 2.79624,-5.53001 4.04687,-8.35893 10.79808,-25.4825 15.08287,-53.61251 12.80555,-81.17472 -2.36058,-28.94519 -11.90925,-57.34973 -27.98199,-81.57507 -2.05698,-3.2049 -4.47134,-6.16812 -6.40658,-9.44954 -0.49067,-0.97389 0.40693,-1.80556 0.63677,-2.70869 1.62725,-4.37847 2.4761,-9.18234 1.57909,-13.82073 -1.32563,-7.60325 -6.59536,-14.3353 -13.59042,-17.56157 -3.17773,-1.48651 -6.69305,-2.27895 -10.2057,-2.20197 z M 304.08467,190.7643 c -3.04323,0.12323 -6.18325,-0.0952 -9.12274,0.83788 -2.52602,0.98111 -4.15599,3.50845 -4.53021,6.1283 -0.87454,4.47259 -0.46568,9.05473 -0.57203,13.58073 -0.0769,0.60053 -1.13854,0.49339 -1.61834,0.80439 -7.01515,2.28772 -13.91175,4.97609 -20.49086,8.32873 -1.06629,0.52495 -2.13334,1.04813 -3.19979,1.57323 -3.51075,-3.29283 -6.81453,-6.8253 -10.56212,-9.85365 -1.73962,-1.28097 -4.06386,-1.55578 -6.12452,-1.05231 -2.08404,0.6066 -3.54591,2.33364 -5.17133,3.66627 -4.90029,4.59806 -9.58117,9.42617 -14.36054,14.1499 -4.90686,4.94183 -9.9006,9.80423 -14.61414,14.93268 -1.39131,1.56492 -2.88537,3.37025 -2.82214,5.59102 -0.0796,1.68878 0.3662,3.3964 1.42004,4.73786 2.05601,2.58648 4.47067,4.86402 6.72445,7.27586 1.01044,1.04796 2.02088,2.09594 3.0313,3.14392 -3.41703,6.76021 -6.67941,13.63465 -8.96505,20.87093 -0.46652,1.4253 -0.92662,2.8443 -1.39573,4.26923 -4.91517,0.19449 -9.85054,0.12379 -14.74776,0.60831 -1.56603,0.21176 -2.97557,1.06453 -3.98312,2.26618 -0.6638,0.65271 -1.31814,1.3149 -1.97609,1.97347 -0.075,14.20941 -0.33131,28.41925 -0.21194,42.6288 0.0912,2.64932 -0.0259,5.3921 0.85497,7.92854 1.00483,2.47339 3.50046,4.05762 6.08344,4.42629 4.48504,0.87353 9.08017,0.46823 13.61867,0.57192 0.64802,0.03 0.52396,1.13087 0.84101,1.6199 2.16705,6.73216 4.78916,13.32298 7.99018,19.6324 0.64924,1.31402 1.29847,2.62804 1.9477,3.94205 -3.32035,3.54314 -6.88223,6.87645 -9.94359,10.65155 -1.26865,1.69765 -1.55249,3.95584 -1.12166,5.98907 0.5735,2.18005 2.37042,3.69521 3.75371,5.3711 4.59741,4.89975 9.42341,9.58026 14.14747,14.35746 5.00864,4.97097 9.92796,10.0393 15.14172,14.79398 1.50474,1.33937 3.28072,2.68666 5.40348,2.60538 1.66376,0.0864 3.33608,-0.3755 4.65393,-1.40958 2.2769,-1.74872 4.24413,-3.86238 6.34265,-5.81521 1.38655,-1.33477 2.77309,-2.66953 4.15964,-4.00429 6.82097,3.44815 13.75969,6.71848 21.04118,9.08194 1.38631,0.46291 2.77199,0.9277 4.15736,1.39346 0.0903,4.89431 -0.3356,9.86437 0.69196,14.68768 0.5499,2.29029 2.0929,4.35557 4.28613,5.28859 2.30565,0.9445 4.86182,0.76386 7.3017,0.86735 11.39089,0.14362 22.78226,-0.0853 34.17323,-0.12686 3.03626,-0.0228 6.07252,-0.0448 9.10878,-0.0682 1.50744,-1.7032 3.722,-3.08364 4.12055,-5.49616 0.50279,-2.5895 0.36398,-5.24878 0.50744,-7.87205 0.0705,-2.44625 0.14109,-4.89251 0.21163,-7.33877 6.01223,-1.89661 11.97527,-3.99029 17.67221,-6.70408 2.50717,-1.18167 4.98029,-2.43536 7.46795,-3.65878 3.52644,3.31083 6.85089,6.85515 10.61204,9.90383 1.69758,1.25695 3.94784,1.53432 5.97438,1.10515 2.21375,-0.58999 3.74396,-2.42444 5.45128,-3.82644 5.54262,-5.23475 10.85844,-10.70403 16.27335,-16.07108 5.13523,-5.12836 10.26609,-10.26209 15.39578,-15.39709 -0.15706,-2.39613 0.47458,-5.05473 -0.92575,-7.19441 -1.3691,-2.17704 -3.35912,-3.86404 -5.08435,-5.74718 -1.70659,-1.7506 -3.41318,-3.50119 -5.11977,-5.25178 3.26397,-6.4558 6.32848,-13.03588 8.62941,-19.90556 0.61227,-1.80081 1.21619,-3.60634 1.82933,-5.4076 4.85623,-0.0898 9.7915,0.33913 14.5732,-0.70837 2.41999,-0.56717 4.6973,-2.21177 5.47204,-4.65108 0.75423,-2.28328 0.60807,-4.73366 0.71806,-7.10503 0.17111,-11.92344 -0.0867,-23.84747 -0.13487,-35.771 -0.0197,-2.44211 -0.0391,-4.88422 -0.059,-7.32632 -1.7042,-1.50162 -3.0767,-3.71584 -5.48572,-4.11848 -2.5832,-0.50311 -5.23627,-0.36415 -7.85331,-0.50737 -2.42541,-0.0699 -4.85082,-0.13974 -7.27624,-0.2096 -1.64929,-5.37533 -3.55239,-10.67438 -5.87548,-15.79906 -1.42532,-3.19147 -2.96423,-6.33307 -4.45195,-9.49743 3.25295,-3.45374 6.72532,-6.71125 9.73285,-10.38659 1.30627,-1.7212 1.59227,-4.03214 1.13121,-6.0979 -0.56931,-2.12823 -2.32707,-3.61162 -3.67641,-5.25472 -4.64903,-4.96148 -9.538,-9.69203 -14.31494,-14.52946 -4.911,-4.87456 -9.73769,-9.83724 -14.83857,-14.51396 -1.57369,-1.40678 -3.41487,-2.87906 -5.65183,-2.77978 -1.75132,-0.0708 -3.5106,0.45362 -4.85829,1.59405 -3.01464,2.51531 -5.73465,5.36533 -8.58797,8.06137 -0.4821,0.46627 -0.96421,0.93255 -1.44631,1.39881 -7.66763,-3.68856 -15.3973,-7.33576 -23.5709,-9.77232 -0.52683,-0.29356 -1.52518,-0.23277 -1.72984,-0.76844 -0.19019,-4.8183 -0.12338,-9.65679 -0.60285,-14.45716 -0.21426,-1.60363 -1.1177,-3.0231 -2.34587,-4.04736 -0.6778,-0.60444 -1.26634,-1.42017 -1.99752,-1.89838 -13.74191,-0.0873 -27.48349,-0.28973 -41.22595,-0.23873 z m 133.43545,3.69954 c 3.67385,-0.0652 7.06773,2.75505 7.81176,6.32986 1.07414,4.3282 -2.12297,9.20006 -6.54037,9.88765 -1.45794,0.24758 -3.21016,-0.0244 -4.6118,-0.73176 -3.27685,-1.55167 -5.70086,-5.32988 -4.83054,-8.99876 0.86731,-3.63995 4.40072,-6.53293 8.17095,-6.48699 z m -234.96946,0.0271 c 4.51486,-0.0107 8.7622,4.21574 8.23808,8.81317 -0.42252,4.34232 -4.73691,8.13338 -9.15331,7.4603 -3.34926,-0.52014 -6.04991,-3.16952 -6.94602,-6.4183 -1.03507,-3.52251 0.95192,-7.46868 4.20629,-9.03542 1.12327,-0.57704 2.39331,-0.85682 3.65496,-0.81975 z M 320.00621,206.417 c 4.79863,0 9.59726,0 14.39588,0 0.0823,4.42698 -0.26927,8.8983 0.44812,13.28706 0.40877,2.07706 1.74042,4.02514 3.76541,4.8004 2.71059,1.22432 5.64513,1.70254 8.44197,2.66551 7.94104,2.35367 15.57167,5.70319 22.73271,9.85921 2.01786,1.08176 4.07925,2.28555 6.38016,2.60428 2.28006,0.23694 4.40926,-0.93709 6.04839,-2.42174 2.73027,-2.28841 5.11417,-4.95857 7.68942,-7.40265 0.38835,-0.75877 0.88181,0.52257 1.32041,0.73073 6.42585,6.42651 12.85169,12.85301 19.27754,19.27952 -2.97735,3.0971 -6.24983,5.95126 -8.82455,9.40893 -1.25082,1.81392 -1.75769,4.21067 -0.90436,6.29839 1.05598,3.15977 3.01457,5.8741 4.47617,8.83627 3.91537,7.30819 6.73768,15.07666 8.89071,23.07434 0.721,2.23123 1.19167,4.79643 3.13263,6.33857 1.84717,1.56265 4.40734,1.59493 6.69607,1.78809 3.20632,0.0958 6.41515,0.0212 9.6226,0.0507 0,9.59587 0,19.19174 0,28.78759 -4.43004,0.0791 -8.90274,-0.26871 -13.29541,0.44603 -2.07602,0.41638 -4.02977,1.74774 -4.79373,3.78119 -1.20123,2.67972 -1.66864,5.57916 -2.64022,8.33299 -2.31415,7.46275 -5.51398,14.62252 -9.1982,21.50309 -1.38125,2.81148 -3.10768,5.68939 -3.08272,8.92009 0.22523,3.02786 2.58153,5.23537 4.53312,7.31687 1.76989,1.85573 3.56991,3.68256 5.35662,5.52208 -6.76059,6.7613 -13.52119,13.52259 -20.28179,20.28387 -3.63296,-3.48954 -7,-7.37114 -11.3145,-10.04864 -1.86942,-0.83912 -3.86933,0.19435 -5.60205,0.90061 -6.30395,2.83164 -12.2758,6.38827 -18.76398,8.81585 -4.71336,1.86799 -9.63754,3.19967 -14.48257,4.75346 -2.20405,0.72984 -4.41404,2.23466 -4.97148,4.62477 -0.89658,3.13293 -0.56889,6.43545 -0.66065,9.65214 0,1.463 0,2.926 0,4.389 -9.59517,0 -19.19035,0 -28.78551,0 -0.0827,-4.42203 0.26505,-8.88598 -0.42727,-13.27247 -0.41366,-2.07427 -1.77357,-3.98517 -3.77866,-4.77402 -2.85133,-1.34891 -5.96588,-1.89973 -8.90725,-2.92242 -6.30207,-1.94107 -12.43427,-4.45971 -18.20586,-7.65182 -2.92863,-1.49565 -5.76941,-3.18205 -8.78778,-4.49012 -2.19803,-0.7807 -4.62699,0.0132 -6.37789,1.43325 -3.42772,2.48795 -6.24066,5.69054 -9.33763,8.55707 -6.7606,-6.76059 -13.52119,-13.52119 -20.28179,-20.28179 3.07052,-3.19062 6.43825,-6.13673 9.08106,-9.7105 1.21545,-1.74132 1.74013,-4.0654 0.85566,-6.06739 -1.0216,-2.74425 -2.73218,-5.15702 -4.01029,-7.78058 -3.76318,-6.9691 -6.76929,-14.34322 -8.90997,-21.96906 -0.70186,-2.2786 -1.26906,-4.63887 -2.39589,-6.75367 -1.01419,-1.7504 -2.86753,-2.9206 -4.87328,-3.13959 -3.67371,-0.60306 -7.41373,-0.28346 -11.11872,-0.37445 -0.50347,-0.14029 -1.57067,0.28315 -1.71784,-0.21343 0,-9.52472 0,-19.04944 0,-28.57417 4.38887,-0.0799 8.8161,0.2562 13.17243,-0.40434 2.07006,-0.39477 4.01085,-1.70146 4.82389,-3.69641 1.39331,-2.91069 1.95788,-6.10511 3.01203,-9.13515 2.08901,-6.75587 4.97391,-13.23574 8.24798,-19.49496 1.52301,-3.04247 3.22379,-6.05382 4.11021,-9.35844 0.29875,-1.28776 -0.13158,-2.62235 -1.00356,-3.59044 -2.67255,-3.73285 -6.09166,-6.82977 -9.27579,-10.10924 6.76129,-6.76199 13.52257,-13.52398 20.28387,-20.28597 3.06349,2.89245 5.92285,6.02795 9.24017,8.64293 1.77472,1.29587 4.16128,1.75054 6.24244,0.96087 3.40383,-1.04882 6.48618,-2.9714 9.63229,-4.53426 7.64584,-3.95347 15.72022,-6.94217 24.02549,-9.19106 2.27282,-0.61814 4.77513,-1.71598 5.69193,-4.06748 1.1883,-2.93047 0.90287,-6.16747 0.99049,-9.26029 0.004,-1.88971 0.004,-3.77943 0.003,-5.66915 4.79655,0 9.59309,0 14.38963,0 z m -152.26243,39.95914 c -3.35481,0.139 -6.48972,2.42448 -7.62304,5.5897 -3.61596,7.94939 -6.08917,16.35894 -8.36333,24.77227 -4.70799,17.79976 -6.27152,36.38845 -5.03344,54.74654 2.12774,31.31979 12.64621,62.14181 30.78745,87.81854 1.25132,1.88227 2.68622,3.65611 3.78203,5.63441 0.5367,0.94999 -0.3731,1.79208 -0.62528,2.66991 -1.39545,3.52983 -1.93244,7.35942 -1.95202,11.13892 0.2347,7.01015 4.22225,13.54316 9.74006,17.71571 4.22046,3.17094 9.50415,5.08409 14.81194,4.88487 3.86716,-0.29529 7.70834,-1.36425 11.11328,-3.23287 3.82139,-2.19221 6.94818,-5.48799 9.26724,-9.20751 1.77513,-3.2049 2.51482,-6.87956 2.84103,-10.49534 0.46283,-7.74319 -3.32153,-15.50364 -9.53419,-20.10172 -4.02575,-3.09433 -9.06867,-4.76575 -14.13719,-4.80702 -3.1561,-0.0829 -6.26696,0.61417 -9.26534,1.52446 -1.94609,-2.9121 -4.0198,-5.75994 -5.91526,-8.71498 -11.43817,-17.42882 -19.08063,-37.16811 -22.9732,-57.59704 -1.14339,-6.00949 -2.08233,-12.05519 -2.21101,-18.19247 -0.38452,-9.84223 -0.24884,-19.71343 0.55069,-29.50997 0.76403,-7.22649 2.4087,-14.28903 4.22201,-21.31142 1.69706,-6.4804 3.78908,-12.79076 6.1175,-19.06902 0.77472,-2.32735 1.69202,-4.65166 2.01834,-7.09058 -0.13087,-2.52956 -1.97138,-4.59427 -3.9008,-6.04614 -1.0783,-0.75224 -2.39577,-1.18857 -3.71747,-1.11925 z m 150.47623,14.85859 c -5.98851,0.10697 -12.02001,0.90514 -17.64401,3.04222 -13.61763,4.82008 -25.38987,14.71734 -32.32056,27.40812 -2.89979,5.29479 -5.12653,11.01423 -6.17635,16.97284 -1.13317,7.10103 -1.10466,14.37006 -0.19413,21.49447 0.92545,6.10899 3.10074,11.98042 5.93384,17.45138 4.45877,8.47552 11.03327,15.81719 19.0045,21.13299 6.62737,4.4954 14.11602,7.78152 22.00707,9.24642 5.71569,1.13954 11.60388,1.07749 17.38689,0.56329 4.87387,-0.43899 9.7016,-1.45283 14.28559,-3.18495 17.64225,-6.54107 31.68733,-21.94889 36.58893,-40.11118 1.94607,-7.02856 2.44269,-14.43981 1.50923,-21.67088 -0.49358,-4.42118 -1.19004,-8.9374 -3.19263,-12.95722 -1.4435,-2.66837 -4.55385,-4.55638 -7.62591,-3.91417 -2.49366,0.47542 -4.82506,2.15845 -5.88278,4.48573 -1.0219,2.67952 -0.26797,5.58629 0.19407,8.29977 0.93947,4.33098 1.54508,8.82252 1.18407,13.28443 -0.2725,3.94421 -1.25262,8.13188 -2.67665,11.88769 -1.98633,5.25579 -4.7674,10.22465 -8.57325,14.41636 -5.98236,6.74336 -14.21705,11.26815 -22.92399,13.40531 -3.90629,0.72929 -7.87383,0.46368 -11.85102,0.5169 -3.1923,-0.001 -6.42028,-0.28227 -9.44085,-1.38169 -7.86787,-2.49037 -15.11207,-6.94979 -20.52448,-13.24903 -3.90352,-4.50556 -6.78277,-9.83443 -8.68803,-15.52158 -0.94492,-2.58156 -1.48355,-5.29923 -1.53649,-8.05019 -0.0695,-3.77285 -0.15442,-7.55598 0.10564,-11.32335 0.20538,-2.8885 1.19152,-5.82112 2.23381,-8.52702 2.60884,-7.2161 7.36729,-13.54192 13.25631,-18.41602 3.19432,-2.60144 6.91636,-4.83002 10.78767,-6.4309 2.90531,-1.22259 5.9951,-2.14279 9.14188,-2.72935 2.88943,-0.52309 6.00823,-0.77365 9.01323,-0.66385 3.88266,0.08 7.75633,1.14351 11.69375,1.6341 1.77815,0.20718 3.73656,0.22975 5.23812,-0.89937 1.41937,-1.01829 2.63934,-2.39101 3.38023,-3.97884 1.06774,-2.74756 0.002,-5.94713 -1.93418,-8.03477 -1.64177,-1.79133 -4.1325,-2.26301 -6.37155,-2.88459 -5.03426,-1.11975 -10.2437,-1.37506 -15.38798,-1.31307 z m 37.54143,14.87942 c -4.63786,0.26785 -8.25513,5.44376 -6.79463,9.88366 1.05715,3.59758 4.7697,6.23885 8.53514,5.85421 3.09308,-0.17872 5.91904,-2.50648 6.59653,-5.54598 0.98313,-3.68883 -0.98639,-7.96624 -4.55715,-9.42463 -1.17723,-0.54637 -2.48142,-0.82457 -3.77989,-0.76726 z m 80.77908,137.38302 c -7.96047,0.17278 -15.54539,4.80184 -19.61912,11.59746 -3.65363,5.91435 -4.31032,13.41704 -2.26542,20.00865 0.0896,0.61566 0.70202,1.42039 -0.16724,1.68928 -6.62451,4.71426 -13.462,9.15333 -20.70046,12.87316 -14.23368,7.47418 -29.57336,12.92346 -45.38867,15.77276 -7.87613,1.49059 -15.82698,2.23153 -23.83417,2.26659 -12.16279,0.20642 -24.38263,-0.32742 -36.29452,-2.83526 -6.34385,-1.27186 -12.5479,-3.09401 -18.73185,-4.95748 -2.34775,-0.59081 -4.80692,-1.18134 -7.23515,-0.80526 -3.13938,0.60267 -5.30951,3.6648 -5.48576,6.75488 -0.2363,2.73356 1.05141,5.67105 3.56197,6.94888 3.12593,1.82138 6.64885,2.79876 10.09033,3.83317 11.10951,3.12507 22.53529,4.99706 33.98816,6.33757 4.31823,0.52296 8.66876,0.74346 13.01808,0.63192 7.75411,-0.0967 15.50922,-0.44895 23.23024,-1.16719 10.0396,-1.13198 19.9465,-3.32856 29.61486,-6.23839 18.849,-5.71244 36.75962,-14.56556 52.60761,-26.27741 0.77289,-0.55249 1.54578,-1.10499 2.31867,-1.65749 2.79022,1.32346 5.70227,2.54718 8.82037,2.75714 5.70902,0.63518 11.67665,-0.59153 16.4685,-3.82341 4.63223,-2.9573 7.91403,-7.70614 9.60923,-12.88536 1.42669,-4.20919 1.4847,-8.83565 0.22533,-13.09397 -1.17895,-4.42883 -3.62692,-8.52067 -7.09202,-11.53825 -2.54376,-2.41446 -5.59734,-4.39824 -9.05848,-5.16523 -2.50155,-0.67038 -5.08409,-1.09782 -7.68049,-1.02676 z m 1.00461,15.66728 c 4.6554,0.0564 8.50061,4.72763 7.94003,9.29583 -0.3279,3.79162 -3.79581,7.05874 -7.60099,7.04818 -3.58672,0.13241 -7.22028,-2.16121 -8.29013,-5.65392 -1.66022,-4.95994 2.74869,-10.67346 7.95109,-10.69009 z m -234.47757,0.0313 c 4.62366,0.16943 8.30032,4.91714 7.65271,9.43259 -0.50742,4.14538 -4.66528,7.43217 -8.82406,6.89539 -3.12303,-0.36 -5.91433,-2.50405 -6.96785,-5.49324 -1.25998,-3.2554 0.1296,-7.13909 2.95099,-9.10408 1.48311,-1.11113 3.32639,-1.77036 5.18821,-1.73066 z m 39.22966,30.05065 c -2.65249,0.40557 -4.68619,2.48714 -6.07963,4.64959 -1.88588,3.34318 -0.42635,7.9569 2.86631,9.83249 2.80457,1.78064 6.78342,1.64744 9.26199,-0.65628 3.02977,-2.60163 3.45536,-7.71009 0.8089,-10.71994 -1.54853,-1.61207 -3.67205,-2.67823 -5.86717,-3.0564 -0.32775,-0.0466 -0.65967,-0.061 -0.9904,-0.0494 z" /><ellipse
         style="fill:#ffffff;fill-opacity:1;stroke:none;stroke-width:22.739;stroke-dasharray:none"
         id="path22"
         cx="203.72949"
         cy="202.3271"
         rx="12.016217"
         ry="10.067642" /><ellipse
         style="fill:#ffffff;fill-opacity:1;stroke:none;stroke-width:22.739;stroke-dasharray:none"
         id="ellipse22"
         cx="205.91426"
         cy="438.28192"
         rx="12.016217"
         ry="10.067642" /><ellipse
         style="fill:#ffffff;fill-opacity:1;stroke:none;stroke-width:22.739;stroke-dasharray:none"
         id="ellipse23"
         cx="438.59192"
         cy="438.82812"
         rx="12.016217"
         ry="10.067642" /><ellipse
         style="fill:#ffffff;fill-opacity:1;stroke:none;stroke-width:22.739;stroke-dasharray:none"
         id="ellipse24"
         cx="436.40717"
         cy="201.23473"
         rx="12.016217"
         ry="10.067642" /></g><rect
       style="fill:#1a1a1a;fill-opacity:1;stroke:none;stroke-width:13.2292"
       id="rect1-4"
       width="639.60938"
       height="640"
       x="-911.75415"
       y="-6.614573" /><path
       sodipodi:type="star"
       style="fill:url(#linearGradient1);stroke:none;stroke-width:1.81303;stroke-dasharray:none"
       id="path6-55"
       inkscape:flatsided="true"
       sodipodi:sides="6"
       sodipodi:cx="76.856956"
       sodipodi:cy="116.63719"
       sodipodi:r1="42.511993"
       sodipodi:r2="21.255997"
       sodipodi:arg1="0.84730899"
       sodipodi:arg2="1.3709078"
       inkscape:rounded="0"
       inkscape:randomized="0"
       d="M 105,148.5 63.334476,156.94119 35.191432,125.07838 48.713912,84.774382 90.379437,76.333196 118.52248,108.19601 Z"
       inkscape:transform-center-x="15.248957"
       inkscape:transform-center-y="-16.854894"
       transform="matrix(6.9191792,-2.3166288,2.3166288,6.9191792,-1393.7463,-315.59918)" /><path
       sodipodi:type="star"
       style="fill:none;stroke:#f9f9f9;stroke-width:4.86666154;stroke-dasharray:none"
       id="path6-5-1"
       inkscape:flatsided="true"
       sodipodi:sides="6"
       sodipodi:cx="76.856956"
       sodipodi:cy="116.63719"
       sodipodi:r1="42.511993"
       sodipodi:r2="21.255997"
       sodipodi:arg1="0.84730899"
       sodipodi:arg2="1.3709078"
       inkscape:rounded="0"
       inkscape:randomized="0"
       d="M 105,148.5 63.334476,156.94119 35.191432,125.07838 48.713912,84.774382 90.379437,76.333196 118.52248,108.19601 Z"
       inkscape:transform-center-x="14.200364"
       inkscape:transform-center-y="-15.699876"
       transform="matrix(6.4433925,-2.1578754,2.1573293,6.4450229,-1337.5608,-271.35184)" /><path
       id="path7-1"
       style="fill:#ffffff;fill-opacity:1;stroke-width:2.67961"
       d="m -595.89844,123.54102 c -32.48653,0.83138 -64.80775,9.84197 -92.78002,26.44749 -5.61604,3.28053 -10.90792,7.06197 -16.29029,10.7029 -7.31137,-3.01033 -15.84204,-3.54973 -23.22662,-0.47676 -9.94622,3.94152 -17.50739,13.54348 -18.61041,24.23719 -1.12516,9.81322 3.09481,19.99549 10.70023,26.26605 4.10484,3.59349 9.31437,5.85548 14.72709,6.49036 8.79301,1.18999 18.12235,-1.70045 24.47657,-7.94987 6.85686,-6.53385 10.40019,-16.45937 8.9051,-25.84952 -0.17488,-1.20552 -0.40681,-2.40318 -0.70438,-3.58464 9.03088,-6.3345 18.53125,-11.93703 28.60158,-16.47466 14.33901,-6.58206 29.70621,-11.20054 45.30271,-13.30464 10.02781,-1.3567 20.12516,-1.87461 30.24581,-1.42363 10.13981,0.43279 20.28089,1.86289 30.17276,4.07971 4.04842,0.86142 8.05029,1.92698 12.07925,2.86652 4.1063,0.80556 8.66318,-0.24668 11.66806,-3.25116 2.09685,-2.02312 3.30323,-4.8762 3.39249,-7.78051 0.36126,-4.18569 -1.51303,-8.69593 -5.22734,-10.8521 -3.8341,-2.49574 -8.41064,-3.3407 -12.75103,-4.53834 -16.53762,-4.15359 -33.63939,-5.97354 -50.68156,-5.60439 z m 79.05274,16.97265 c -6.43011,0.26034 -11.99842,6.46404 -11.36466,12.90839 0.27919,6.10923 5.70189,11.52887 11.84124,11.67546 4.85444,0.44074 9.60334,-2.64496 11.65779,-6.98003 2.04947,-3.98821 1.68049,-9.217 -1.28646,-12.65915 -2.51921,-3.28183 -6.71576,-5.20431 -10.84791,-4.94467 z m 49.64648,17.66016 c -8.98041,0.38556 -17.67648,5.00556 -22.98782,12.2648 -3.88221,5.02141 -5.58853,11.46195 -5.61922,17.74261 0.0224,6.64202 2.43419,13.21909 6.65749,18.33869 4.5494,5.64293 11.24467,9.55798 18.45131,10.51093 4.0879,0.63275 8.31464,0.47632 12.3166,-0.59531 4.1298,5.12136 7.38002,10.87231 10.60574,16.585 6.92661,12.67685 12.52247,26.1802 16.10888,40.18121 2.99071,11.9459 4.34695,24.22862 4.54196,36.50345 0.26603,12.95565 -0.54647,25.89296 -3.21752,38.56627 -1.64113,7.80937 -3.96764,15.61764 -6.82317,23.11733 -1.78628,4.89872 -4.10738,9.60393 -5.54061,14.62677 -1.07327,3.27131 -0.26983,6.94509 1.71827,9.69889 2.07445,3.16037 5.60618,5.64354 9.50684,5.50819 2.72588,-0.0475 5.45072,-0.78391 7.83586,-2.09368 2.71855,-1.8285 3.86255,-5.05362 5.24779,-7.86852 5.17158,-11.26636 9.08147,-23.10334 11.84615,-35.18543 7.5846,-33.29799 5.97755,-68.61954 -4.48752,-101.11806 -6.09278,-19.01323 -15.23363,-37.04257 -26.97599,-53.19089 -0.3131,-0.56895 -0.85184,-1.07945 -0.99128,-1.67909 2.96815,-7.31577 3.50137,-15.83284 0.41642,-23.20306 -4.13068,-10.31898 -14.38207,-18.0418 -25.54641,-18.66628 -1.01895,-0.075 -2.04284,-0.0739 -3.06377,-0.0438 z m -142.20312,12.83594 c -4.19284,0.10311 -8.67505,-0.0843 -12.44141,2.07421 -3.78478,2.34981 -5.71618,6.83925 -5.94504,11.16567 -0.40815,3.36957 -0.29296,6.77006 -0.32059,10.1566 -7.61606,2.52924 -15.0661,5.56984 -22.23632,9.17187 -3.62165,-3.42725 -6.99486,-7.22276 -11.26448,-9.87137 -4.56298,-2.32367 -10.53436,-1.13026 -13.97057,2.63161 -6.77715,6.04221 -12.99495,12.67149 -19.47928,19.01988 -5.16264,5.20001 -10.43466,10.31046 -15.1912,15.89077 -2.18813,2.8723 -3.01175,6.77178 -1.93489,10.24583 0.77651,2.77575 2.61836,5.08946 4.65944,7.05951 1.97107,2.13656 4.0022,4.21164 6.02082,6.30307 -3.52652,7.17096 -6.79468,14.49851 -9.14062,22.14844 -5.03083,0.18607 -10.12272,0.004 -15.08114,0.99861 -3.18028,0.98605 -5.36841,3.66653 -7.57511,5.99162 -1.02214,1.6143 -0.42835,3.5872 -0.60977,5.3707 -0.0486,15.93432 -0.48516,31.87438 0.002,47.80515 0.26311,3.77127 1.89707,7.69466 5.2019,9.76682 3.49727,2.38519 7.88407,2.63339 11.98032,2.7784 2.02111,0.0501 4.04304,0.0272 6.06456,0.0328 2.50206,7.5946 5.61766,14.98373 9.22656,22.12109 -3.41964,3.56662 -7.11656,6.94904 -9.84132,11.10387 -2.51076,4.55627 -1.39023,10.68178 2.41781,14.18211 5.91536,6.6414 12.39885,12.7439 18.6231,19.08816 5.34815,5.30954 10.59962,10.73679 16.33361,15.63563 2.68659,2.05789 6.26675,2.91762 9.57618,2.12891 2.84087,-0.61267 5.2832,-2.35059 7.27787,-4.40466 2.32278,-2.12483 4.569,-4.33106 6.83931,-6.51136 7.17665,3.52115 14.50035,6.79085 22.125,9.2168 -0.0136,5.33271 -0.28734,10.8566 1.60352,15.9414 1.86751,4.42759 6.58103,7.3435 11.34999,7.31959 6.79847,0.34748 13.60862,0.1464 20.41247,0.17634 10.30522,-0.0498 20.61018,-0.14326 30.91527,-0.21272 2.04684,-0.48344 3.15777,-2.43406 4.67946,-3.69983 2.05335,-2.09646 3.32114,-4.97107 3.3055,-7.92131 0.36874,-3.86709 0.29846,-7.75688 0.46426,-11.63472 7.61967,-2.42387 15.02806,-5.49982 22.15039,-9.13282 3.56175,3.39382 6.91211,7.09717 11.06842,9.78366 4.45791,2.45982 10.42738,1.42507 13.9384,-2.21803 6.88454,-6.15213 13.23343,-12.86932 19.81891,-19.33048 5.86408,-5.86289 11.7282,-11.72574 17.59224,-17.58866 -0.35846,-3.49942 0.45021,-7.25406 -1.21966,-10.51652 -2.41706,-4.34099 -6.4219,-7.4337 -9.69245,-11.07918 -0.61609,-0.2956 0.22425,-0.84084 0.25689,-1.26644 3.35824,-6.86119 6.33555,-13.9192 8.69819,-21.18474 5.50523,-0.007 11.25055,0.28618 16.43469,-1.89608 4.05496,-1.90394 6.69028,-6.36408 6.68204,-10.76832 0.43128,-5.89125 0.19651,-11.80298 0.26094,-17.70394 -0.0443,-11.33039 -0.13377,-22.66767 -0.2683,-33.99298 -0.45537,-1.96403 -2.33288,-3.03228 -3.5453,-4.49029 -2.05022,-2.06166 -4.8654,-3.39285 -7.7963,-3.41044 -3.91099,-0.40274 -7.84938,-0.28738 -11.77168,-0.4899 -2.41773,-7.6645 -5.66695,-15.03656 -9.16601,-22.26367 3.31253,-3.43956 6.89157,-6.69801 9.55918,-10.68952 2.59441,-4.39595 1.66782,-10.40368 -1.87898,-14.01116 -5.39315,-6.00546 -11.1888,-11.62569 -16.88565,-17.33888 -5.97388,-5.9443 -11.81937,-12.03032 -18.18046,-17.56633 -2.86728,-2.32751 -6.8514,-3.27387 -10.42108,-2.21353 -2.79686,0.74114 -5.1396,2.57276 -7.11195,4.62547 -2.12255,1.96681 -4.19128,3.99043 -6.27442,5.99864 -7.25456,-3.43283 -14.58491,-6.77787 -22.26367,-9.15625 -0.18105,-5.03108 0.0264,-10.13035 -1.02495,-15.08081 -0.98418,-2.99701 -3.43509,-5.16265 -5.73581,-7.1761 -1.96754,-1.34609 -4.46262,-0.78786 -6.68998,-0.90808 -13.52665,-0.0977 -27.05334,-0.23836 -40.58051,-0.20415 z m 11.24023,24.94335 c 5.9069,0 11.8138,10e-6 17.7207,0 0.01,4.64609 -0.2618,9.49585 1.56234,13.87604 1.60894,3.36767 5.05837,5.48707 8.6132,6.27621 5.71669,1.7456 11.51958,3.30442 17.01226,5.71695 5.54548,2.32694 10.80274,5.26247 16.09943,8.09229 3.17442,1.53915 7.04393,2.25479 10.35946,0.71717 3.89893,-1.62824 6.64949,-4.97437 9.65942,-7.7951 0.37288,-0.75693 0.7924,-0.2362 1.18203,0.21635 5.08208,5.08519 10.16416,10.17037 15.24624,15.25556 -3.17608,3.21243 -6.69274,6.35482 -8.49524,10.59634 -1.31827,3.56355 -0.46769,7.58087 1.41376,10.77833 2.33369,4.65036 5.09565,9.08985 7.06823,13.91749 2.87932,6.59418 4.82003,13.57839 6.92277,20.46489 1.25232,3.43585 4.09292,6.4341 7.74965,7.21971 3.81583,1.03005 7.81334,0.71289 11.71583,0.78887 0.0681,0.79036 -0.002,1.81211 0.0234,2.68945 0,6.64453 0,13.28906 0,19.9336 -4.64935,0.008 -9.50527,-0.26016 -13.88886,1.56299 -3.34679,1.60456 -5.46087,5.03835 -6.24355,8.57562 -1.55072,5.1039 -3.00077,10.25233 -5.0969,15.16815 -2.57181,6.27525 -5.84112,12.2274 -8.7237,18.35556 -1.41717,3.37121 -1.96717,7.4123 -0.22502,10.77518 1.74832,3.70884 5.04165,6.29884 7.71318,9.30273 0.0306,0.26649 -0.68273,0.66472 -0.89221,0.99386 -5.00273,5.00335 -10.00545,10.0067 -15.00818,15.01005 -3.44301,-3.36918 -6.85896,-7.00817 -11.31301,-9.03116 -3.14018,-0.97424 -6.39138,0.2908 -9.20191,1.6613 -8.37661,3.91813 -16.48469,8.56788 -25.40517,11.1866 -4.11958,1.38371 -8.443,2.29957 -12.30541,4.34748 -3.19702,1.9532 -5.11829,5.61579 -5.27729,9.31886 -0.38654,2.95442 -0.23631,5.94072 -0.25697,8.91145 -7.53907,-0.002 -15.07813,-0.004 -22.61719,-0.006 -0.006,-4.5408 0.25542,-9.2601 -1.41728,-13.5735 -1.56575,-3.47345 -5.06093,-5.67937 -8.66321,-6.56531 -5.56322,-1.81751 -11.23209,-3.25701 -16.55755,-5.63629 -6.0105,-2.54333 -11.65657,-5.83859 -17.50378,-8.75499 -2.46678,-1.15923 -5.3656,-1.65659 -7.99099,-0.72577 -3.83484,1.21117 -6.69367,4.20265 -9.57549,6.8538 -0.69263,0.66545 -1.37772,1.33866 -2.06514,2.00948 -5.32096,-5.32161 -10.64193,-10.64323 -15.96289,-15.96484 3.28386,-3.34259 6.95222,-6.58714 8.80422,-10.99799 1.23511,-3.45294 0.36284,-7.33869 -1.55721,-10.3671 -2.94701,-5.58749 -6.09569,-11.09359 -8.3711,-17.00399 -2.1858,-5.4534 -3.81518,-11.08592 -5.54779,-16.68136 -1.1514,-3.28409 -3.43465,-6.44467 -6.8552,-7.58059 -3.80435,-1.4108 -7.93461,-1.05536 -11.91393,-1.1542 -0.77819,0.15667 -1.17192,-0.0717 -0.9686,-0.89798 0.004,-7.23515 0.009,-14.47031 0.0131,-21.70547 4.56447,-0.005 9.31725,0.27603 13.64305,-1.4462 3.38552,-1.55898 5.5689,-4.95672 6.44577,-8.48754 1.78318,-5.41333 3.18239,-10.95054 5.48585,-16.12945 2.70474,-6.46616 6.16042,-12.56744 8.98156,-18.98748 1.06981,-2.57881 1.80111,-5.63584 0.51112,-8.27721 -1.25323,-2.70783 -3.4579,-4.79323 -5.37226,-7.02759 -1.06795,-1.16933 -2.18798,-2.28749 -3.29861,-3.41601 5.32031,-5.32161 10.64063,-10.64323 15.96094,-15.96484 3.14897,3.03235 6.14606,6.45138 10.19626,8.29455 3.50502,1.3669 7.47984,0.59749 10.72605,-1.10645 5.5946,-2.50064 10.83252,-5.75655 16.56812,-7.95013 6.02536,-2.49517 12.2765,-4.33952 18.4944,-6.2353 3.54386,-1.31481 6.52482,-4.50564 7.12064,-8.25658 0.88841,-3.64903 0.61699,-7.4321 0.6582,-11.15234 1.63346,0.004 3.26693,0.008 4.90039,0.0117 z m -156.63672,34.54297 c -5.65639,0.17395 -10.73279,4.423 -12.36874,9.7641 -4.99433,11.7072 -8.3986,24.03039 -11.00708,36.46767 -6.5198,32.81531 -3.85007,67.29343 6.96706,98.9096 6.10698,17.79916 14.96635,34.632 26.04102,49.8413 0.21113,0.46704 0.96277,0.89597 0.57239,1.44602 -2.06036,5.3007 -2.90177,11.13465 -2.10996,16.78297 2.08241,13.33504 14.28448,24.22003 27.72787,24.96858 5.61843,0.26681 11.2652,-1.2388 16.16411,-3.96126 5.39845,-3.05476 9.86247,-7.79588 12.49771,-13.41819 1.7613,-3.9353 2.54009,-8.27257 2.60647,-12.56875 0.1381,-12.09921 -8.1882,-23.65633 -19.56999,-27.62939 -5.763,-2.06045 -12.14476,-2.29712 -18.06383,-0.76476 -6.01501,-8.71133 -11.64352,-17.71796 -15.96583,-27.37559 -7.26517,-15.79711 -12.03545,-32.69529 -14.27746,-49.91425 -0.94496,-8.30816 -0.85121,-16.68358 -0.78973,-25.04385 0.17194,-8.16029 0.58873,-16.34247 2.25335,-24.36237 1.45423,-7.29904 3.39196,-14.53988 5.5854,-21.66879 1.90419,-5.94619 4.26907,-11.74848 5.87137,-17.78692 0.60771,-3.00665 -0.37846,-6.17559 -2.31186,-8.51229 -2.30625,-3.02463 -5.92154,-5.29967 -9.82227,-5.17383 z m 159.6875,15.93164 c -9.47158,0.24852 -18.87905,2.69247 -27.24747,7.14138 -17.06792,8.77606 -30.23733,25.05308 -34.72518,43.76878 -1.83657,7.93976 -2.0133,16.18917 -1.27398,24.27906 0.6944,6.95437 2.60937,13.77198 5.59569,20.08917 5.3223,11.53011 14.01848,21.46241 24.74518,28.26303 11.07074,7.12575 24.28372,11.0796 37.48393,10.51101 9.53925,-0.23755 19.13097,-2.14886 27.72658,-6.38622 18.79438,-9.06894 33.06879,-27.15537 37.1308,-47.66425 2.01097,-10.26934 1.40658,-20.98743 -1.31836,-31.06836 -1.0961,-3.67768 -2.97919,-7.42756 -6.41003,-9.42564 -3.44058,-2.12028 -8.01198,-2.25085 -11.53919,-0.26772 -4.05852,2.02228 -6.95903,6.48859 -6.57894,11.08861 0.0815,4.87144 1.85618,9.48251 2.00202,14.34423 0.44354,6.90474 -1.23375,13.87703 -4.11114,20.05551 -3.21757,6.98932 -8.34597,13.20661 -14.84704,17.42151 -4.15907,2.72767 -8.80036,4.78878 -13.68141,6.0329 -4.22225,0.97308 -8.52732,0.61704 -12.83691,0.66478 -3.32852,-0.0114 -6.68455,-0.44573 -9.79595,-1.6732 -6.6973,-2.32834 -12.86177,-6.14208 -17.76977,-11.32887 -2.15065,-2.2713 -4.03029,-4.87982 -5.57492,-7.55367 -2.25356,-3.86465 -3.98719,-8.06177 -5.01688,-12.46977 -0.71174,-4.09858 -0.45281,-8.28005 -0.4739,-12.41939 0.0729,-2.95623 0.33681,-5.84111 1.38789,-8.67325 2.08894,-6.42257 5.59279,-12.46717 10.41745,-17.26424 6.29323,-6.3736 14.57472,-10.67922 23.45091,-12.16448 4.8834,-0.84047 9.83656,-0.73469 14.70283,0.22539 3.36374,0.54715 6.79587,1.43063 10.216,0.87995 3.57989,-0.68858 6.48165,-3.34336 8.27337,-6.41614 2.04754,-3.46607 1.75508,-7.94056 -0.16576,-11.39237 -1.6823,-3.14459 -4.71257,-5.5364 -8.1974,-6.34419 -6.96612,-2.13839 -14.33816,-2.34903 -21.56842,-2.25355 z m 41.48242,15.89649 c -6.6586,0.27444 -12.12317,6.84537 -11.55006,13.41195 0.39353,5.08446 4.23066,9.54506 9.03913,11.06915 4.24894,1.42962 9.28126,0.3416 12.39693,-2.93031 2.87798,-2.88296 4.24347,-7.23905 3.30171,-11.23177 -1.07295,-5.38267 -5.88042,-9.86669 -11.40639,-10.25302 -0.59163,-0.0597 -1.18686,-0.0771 -1.78132,-0.066 z m 85.24805,147.05859 c -12.23439,0.81678 -23.43391,10.07177 -26.40811,21.98992 -1.33772,5.08694 -1.31222,10.51228 -0.0118,15.60383 -9.3816,6.54658 -19.24251,12.37163 -29.72839,16.97922 -15.01336,6.71176 -30.95906,11.26482 -47.24091,13.1562 -10.34005,1.16356 -20.78157,1.09847 -31.17424,0.67272 -10.84526,-0.53775 -21.66445,-2.19753 -32.12381,-5.16966 -4.81043,-1.30254 -9.56448,-2.91336 -14.48656,-3.78496 -3.57817,-0.47221 -7.5289,0.29287 -10.15039,2.92383 -4.43923,4.20772 -5.14631,11.90559 -1.16608,16.65073 2.40833,2.98266 6.18029,4.23945 9.63761,5.55495 6.0676,2.0954 12.34831,3.49768 18.61123,4.86519 10.38717,2.1191 20.90579,3.65678 31.48788,4.34105 9.37609,0.33311 18.75322,-0.24618 28.10542,-0.84866 15.62503,-1.30112 30.98166,-5.04233 45.72948,-10.29248 17.34996,-6.25445 33.81139,-14.99244 48.64329,-25.96219 10.70892,4.84071 24.20471,2.58228 32.73947,-5.50427 6.98534,-6.67602 10.7191,-16.84542 8.98385,-26.43549 -1.61694,-9.34736 -7.88851,-17.79544 -16.41754,-21.9673 -4.40919,-2.05576 -9.33355,-2.87585 -14.1758,-2.81022 -0.28486,0.0125 -0.56973,0.0251 -0.85459,0.0376 z m -206.93555,48.9336 c -5.15006,0.8077 -9.4023,5.02929 -10.7964,9.97234 -1.41616,5.94177 2.40052,12.59659 8.26077,14.34673 5.36775,1.89966 12.03991,-0.4226 14.70152,-5.54837 2.72222,-4.82017 1.85598,-11.59946 -2.49771,-15.18727 -2.67243,-2.25828 -6.13348,-3.71142 -9.66818,-3.58343 z" /><text
       xml:space="preserve"
       style="font-weight:bold;font-size:229.475px;font-family:Arial;-inkscape-font-specification:'Arial Bold';text-align:start;writing-mode:lr-tb;direction:ltr;text-anchor:start;fill:#8787de;fill-opacity:1;stroke:#ffffff;stroke-width:3.96875;stroke-dasharray:none"
       x="13.736455"
       y="810.34149"
       id="text1"><tspan
         sodipodi:role="line"
         id="tspan1"
         style="font-style:normal;font-variant:normal;font-weight:normal;font-stretch:normal;font-family:'Miriam Libre';-inkscape-font-specification:'Miriam Libre';fill:#8787de;stroke:#ffffff;stroke-width:3.96875;stroke-dasharray:none"
         x="13.736455"
         y="810.34149">Rover</tspan></text></g></svg>
