<?xml version="1.0" encoding="UTF-8" standalone="no"?>
<!-- Created with Inkscape (http://www.inkscape.org/) -->

<svg
   width="640mm"
   height="640mm"
   viewBox="0 0 640 640"
   version="1.1"
   id="svg1"
   xml:space="preserve"
   inkscape:export-filename="..\bitmap.png"
   inkscape:export-xdpi="96"
   inkscape:export-ydpi="96"
   inkscape:version="1.4.2 (f4327f4, 2025-05-13)"
   sodipodi:docname="rover.svg"
   xmlns:inkscape="http://www.inkscape.org/namespaces/inkscape"
   xmlns:sodipodi="http://sodipodi.sourceforge.net/DTD/sodipodi-0.dtd"
   xmlns:xlink="http://www.w3.org/1999/xlink"
   xmlns="http://www.w3.org/2000/svg"
   xmlns:svg="http://www.w3.org/2000/svg"><sodipodi:namedview
     id="namedview1"
     pagecolor="#ffffff"
     bordercolor="#000000"
     borderopacity="0.25"
     inkscape:showpageshadow="2"
     inkscape:pageopacity="0.0"
     inkscape:pagecheckerboard="0"
     inkscape:deskcolor="#d1d1d1"
     inkscape:document-units="mm"
     inkscape:zoom="0.15999999"
     inkscape:cx="1115.625"
     inkscape:cy="1440.6251"
     inkscape:window-width="1920"
     inkscape:window-height="991"
     inkscape:window-x="-9"
     inkscape:window-y="-9"
     inkscape:window-maximized="1"
     inkscape:current-layer="layer1" /><defs
     id="defs1"><linearGradient
       id="linearGradient19"
       inkscape:collect="always"><stop
         style="stop-color:#212178;stop-opacity:1;"
         offset="0"
         id="stop19" /><stop
         style="stop-color:#adade9;stop-opacity:1;"
         offset="1"
         id="stop20" /></linearGradient><inkscape:perspective
       sodipodi:type="inkscape:persp3d"
       inkscape:vp_x="0 : 491.49998 : 1"
       inkscape:vp_y="0 : 999.99994 : 0"
       inkscape:vp_z="210 : 491.49998 : 1"
       inkscape:persp3d-origin="105 : 441.99998 : 1"
       id="perspective1" /><linearGradient
       inkscape:collect="always"
       xlink:href="#linearGradient19"
       id="linearGradient20"
       x1="35.191432"
       y1="116.63719"
       x2="118.52248"
       y2="116.63719"
       gradientUnits="userSpaceOnUse" /></defs><g
     inkscape:label="Layer 1"
     inkscape:groupmode="layer"
     id="layer1"><path
       sodipodi:type="star"
       style="fill:url(#linearGradient20);stroke-width:1.81303456;stroke:none;stroke-dasharray:none"
       id="path6"
       inkscape:flatsided="true"
       sodipodi:sides="6"
       sodipodi:cx="76.856956"
       sodipodi:cy="116.63719"
       sodipodi:r1="42.511993"
       sodipodi:r2="21.255997"
       sodipodi:arg1="0.84730899"
       sodipodi:arg2="1.3709078"
       inkscape:rounded="0"
       inkscape:randomized="0"
       d="M 105,148.5 63.334476,156.94119 35.191432,125.07838 48.713912,84.774382 90.379437,76.333196 118.52248,108.19601 Z"
       inkscape:transform-center-x="15.248957"
       inkscape:transform-center-y="-16.854894"
       transform="matrix(6.9191792,-2.3166288,2.3166288,6.9191792,-481.99212,-308.98459)" /><path
       sodipodi:type="star"
       style="fill:none;stroke:#f9f9f9;stroke-width:3.06824;stroke-dasharray:none"
       id="path6-5"
       inkscape:flatsided="true"
       sodipodi:sides="6"
       sodipodi:cx="76.856956"
       sodipodi:cy="116.63719"
       sodipodi:r1="42.511993"
       sodipodi:r2="21.255997"
       sodipodi:arg1="0.84730899"
       sodipodi:arg2="1.3709078"
       inkscape:rounded="0"
       inkscape:randomized="0"
       d="M 105,148.5 63.334476,156.94119 35.191432,125.07838 48.713912,84.774382 90.379437,76.333196 118.52248,108.19601 Z"
       inkscape:transform-center-x="13.512306"
       inkscape:transform-center-y="-14.943498"
       transform="matrix(6.1311896,-2.0539143,2.0527998,6.1345176,-388.95974,-235.78139)" /><g
       id="g24"
       transform="matrix(1.1635663,0,0,1.1635663,-52.341317,-52.341198)"
       style="stroke-width:0.859427"><path
         id="path7"
         style="fill:#ffffff;fill-opacity:1;stroke-width:2.30293"
         d="m 318.74941,146.36571 c -31.76233,0.31549 -63.47853,9.25739 -90.45415,26.09684 -4.06595,2.4756 -7.89198,5.31341 -11.82958,7.9846 -0.81078,0.52517 -1.88281,1.45679 -2.8581,0.75881 -3.16518,-1.40433 -6.59749,-2.23058 -10.05058,-2.45691 -7.57973,-0.35649 -15.13078,3.29576 -19.74816,9.28218 -4.30653,5.46637 -6.12648,12.90447 -4.42659,19.69789 1.06,4.75857 3.53088,9.22438 7.20518,12.46056 2.40818,2.29231 5.21066,4.2891 8.46812,5.13907 6.23757,2.03943 13.31624,1.48865 19.05658,-1.74582 6.87658,-3.80114 11.76822,-11.11087 12.30496,-18.99178 0.3649,-3.72362 -0.29446,-7.47562 -1.43787,-11.00894 5.32814,-3.72017 10.7345,-7.43279 16.40322,-10.58893 14.96861,-8.40164 31.07565,-14.76169 47.93918,-18.00154 12.97768,-2.52943 26.16521,-3.48269 39.37371,-2.73343 10.66514,0.59191 21.25399,2.31596 31.63261,4.8701 2.68459,0.60117 5.31398,1.52128 8.06025,1.79837 2.14941,0.17668 4.30887,-0.70748 5.9452,-2.06607 1.90104,-1.60433 2.30054,-4.30459 2.08917,-6.65352 -0.14895,-2.03052 -1.33653,-3.883 -3.06259,-4.94279 -2.82474,-1.77923 -6.15538,-2.46128 -9.32419,-3.37466 -14.76247,-3.83791 -30.03438,-5.6671 -45.28637,-5.52403 z m 71.79391,15.90488 c -3.63537,0.0312 -7.01254,3.03133 -7.29716,6.68977 -0.47718,3.90364 2.45246,7.98643 6.41967,8.4733 2.33984,0.54702 4.96827,-0.13107 6.57263,-1.96963 2.11167,-2.06176 3.25677,-5.38107 1.9999,-8.18917 -1.25365,-3.00652 -4.40728,-5.16135 -7.69504,-5.00427 z m 46.57872,16.48846 c -6.07206,0.19498 -12.14839,2.55881 -16.43579,6.92652 -2.4641,2.48925 -4.73204,5.33491 -5.76554,8.73509 -1.29478,4.14483 -1.92149,8.60993 -0.99553,12.90084 1.03901,5.31976 4.03552,10.15789 8.14929,13.65665 2.65948,2.35925 5.93866,3.94612 9.39673,4.72842 4.60019,1.19091 9.54688,1.03866 14.0253,-0.5822 0.56713,-0.16078 0.96264,0.58025 1.37655,0.90096 2.65546,3.06797 4.88328,6.59575 7.03898,10.04746 6.69364,10.9911 12.20374,22.72599 16.31893,34.8787 3.47275,10.22792 5.68274,20.80335 6.69229,31.53863 0.96112,10.04337 1.03549,20.22954 0.46848,30.29257 -0.81534,12.95707 -3.32147,25.77606 -7.61281,38.04276 -1.63928,4.82354 -3.61635,9.52158 -5.53342,14.23774 -0.71226,1.97847 -1.57295,3.9965 -1.60311,6.12372 0.31988,2.68083 2.15332,4.97983 4.3302,6.45957 1.9742,1.09802 4.32548,0.52724 6.37912,-0.006 1.15562,-0.3402 2.32284,-0.90926 2.88674,-2.03022 1.65416,-2.6241 2.79624,-5.53001 4.04687,-8.35893 10.79808,-25.4825 15.08287,-53.61251 12.80555,-81.17472 -2.36058,-28.94519 -11.90925,-57.34973 -27.98199,-81.57507 -2.05698,-3.2049 -4.47134,-6.16812 -6.40658,-9.44954 -0.49067,-0.97389 0.40693,-1.80556 0.63677,-2.70869 1.62725,-4.37847 2.4761,-9.18234 1.57909,-13.82073 -1.32563,-7.60325 -6.59536,-14.3353 -13.59042,-17.56157 -3.17773,-1.48651 -6.69305,-2.27895 -10.2057,-2.20197 z M 304.08467,190.7643 c -3.04323,0.12323 -6.18325,-0.0952 -9.12274,0.83788 -2.52602,0.98111 -4.15599,3.50845 -4.53021,6.1283 -0.87454,4.47259 -0.46568,9.05473 -0.57203,13.58073 -0.0769,0.60053 -1.13854,0.49339 -1.61834,0.80439 -7.01515,2.28772 -13.91175,4.97609 -20.49086,8.32873 -1.06629,0.52495 -2.13334,1.04813 -3.19979,1.57323 -3.51075,-3.29283 -6.81453,-6.8253 -10.56212,-9.85365 -1.73962,-1.28097 -4.06386,-1.55578 -6.12452,-1.05231 -2.08404,0.6066 -3.54591,2.33364 -5.17133,3.66627 -4.90029,4.59806 -9.58117,9.42617 -14.36054,14.1499 -4.90686,4.94183 -9.9006,9.80423 -14.61414,14.93268 -1.39131,1.56492 -2.88537,3.37025 -2.82214,5.59102 -0.0796,1.68878 0.3662,3.3964 1.42004,4.73786 2.05601,2.58648 4.47067,4.86402 6.72445,7.27586 1.01044,1.04796 2.02088,2.09594 3.0313,3.14392 -3.41703,6.76021 -6.67941,13.63465 -8.96505,20.87093 -0.46652,1.4253 -0.92662,2.8443 -1.39573,4.26923 -4.91517,0.19449 -9.85054,0.12379 -14.74776,0.60831 -1.56603,0.21176 -2.97557,1.06453 -3.98312,2.26618 -0.6638,0.65271 -1.31814,1.3149 -1.97609,1.97347 -0.075,14.20941 -0.33131,28.41925 -0.21194,42.6288 0.0912,2.64932 -0.0259,5.3921 0.85497,7.92854 1.00483,2.47339 3.50046,4.05762 6.08344,4.42629 4.48504,0.87353 9.08017,0.46823 13.61867,0.57192 0.64802,0.03 0.52396,1.13087 0.84101,1.6199 2.16705,6.73216 4.78916,13.32298 7.99018,19.6324 0.64924,1.31402 1.29847,2.62804 1.9477,3.94205 -3.32035,3.54314 -6.88223,6.87645 -9.94359,10.65155 -1.26865,1.69765 -1.55249,3.95584 -1.12166,5.98907 0.5735,2.18005 2.37042,3.69521 3.75371,5.3711 4.59741,4.89975 9.42341,9.58026 14.14747,14.35746 5.00864,4.97097 9.92796,10.0393 15.14172,14.79398 1.50474,1.33937 3.28072,2.68666 5.40348,2.60538 1.66376,0.0864 3.33608,-0.3755 4.65393,-1.40958 2.2769,-1.74872 4.24413,-3.86238 6.34265,-5.81521 1.38655,-1.33477 2.77309,-2.66953 4.15964,-4.00429 6.82097,3.44815 13.75969,6.71848 21.04118,9.08194 1.38631,0.46291 2.77199,0.9277 4.15736,1.39346 0.0903,4.89431 -0.3356,9.86437 0.69196,14.68768 0.5499,2.29029 2.0929,4.35557 4.28613,5.28859 2.30565,0.9445 4.86182,0.76386 7.3017,0.86735 11.39089,0.14362 22.78226,-0.0853 34.17323,-0.12686 3.03626,-0.0228 6.07252,-0.0448 9.10878,-0.0682 1.50744,-1.7032 3.722,-3.08364 4.12055,-5.49616 0.50279,-2.5895 0.36398,-5.24878 0.50744,-7.87205 0.0705,-2.44625 0.14109,-4.89251 0.21163,-7.33877 6.01223,-1.89661 11.97527,-3.99029 17.67221,-6.70408 2.50717,-1.18167 4.98029,-2.43536 7.46795,-3.65878 3.52644,3.31083 6.85089,6.85515 10.61204,9.90383 1.69758,1.25695 3.94784,1.53432 5.97438,1.10515 2.21375,-0.58999 3.74396,-2.42444 5.45128,-3.82644 5.54262,-5.23475 10.85844,-10.70403 16.27335,-16.07108 5.13523,-5.12836 10.26609,-10.26209 15.39578,-15.39709 -0.15706,-2.39613 0.47458,-5.05473 -0.92575,-7.19441 -1.3691,-2.17704 -3.35912,-3.86404 -5.08435,-5.74718 -1.70659,-1.7506 -3.41318,-3.50119 -5.11977,-5.25178 3.26397,-6.4558 6.32848,-13.03588 8.62941,-19.90556 0.61227,-1.80081 1.21619,-3.60634 1.82933,-5.4076 4.85623,-0.0898 9.7915,0.33913 14.5732,-0.70837 2.41999,-0.56717 4.6973,-2.21177 5.47204,-4.65108 0.75423,-2.28328 0.60807,-4.73366 0.71806,-7.10503 0.17111,-11.92344 -0.0867,-23.84747 -0.13487,-35.771 -0.0197,-2.44211 -0.0391,-4.88422 -0.059,-7.32632 -1.7042,-1.50162 -3.0767,-3.71584 -5.48572,-4.11848 -2.5832,-0.50311 -5.23627,-0.36415 -7.85331,-0.50737 -2.42541,-0.0699 -4.85082,-0.13974 -7.27624,-0.2096 -1.64929,-5.37533 -3.55239,-10.67438 -5.87548,-15.79906 -1.42532,-3.19147 -2.96423,-6.33307 -4.45195,-9.49743 3.25295,-3.45374 6.72532,-6.71125 9.73285,-10.38659 1.30627,-1.7212 1.59227,-4.03214 1.13121,-6.0979 -0.56931,-2.12823 -2.32707,-3.61162 -3.67641,-5.25472 -4.64903,-4.96148 -9.538,-9.69203 -14.31494,-14.52946 -4.911,-4.87456 -9.73769,-9.83724 -14.83857,-14.51396 -1.57369,-1.40678 -3.41487,-2.87906 -5.65183,-2.77978 -1.75132,-0.0708 -3.5106,0.45362 -4.85829,1.59405 -3.01464,2.51531 -5.73465,5.36533 -8.58797,8.06137 -0.4821,0.46627 -0.96421,0.93255 -1.44631,1.39881 -7.66763,-3.68856 -15.3973,-7.33576 -23.5709,-9.77232 -0.52683,-0.29356 -1.52518,-0.23277 -1.72984,-0.76844 -0.19019,-4.8183 -0.12338,-9.65679 -0.60285,-14.45716 -0.21426,-1.60363 -1.1177,-3.0231 -2.34587,-4.04736 -0.6778,-0.60444 -1.26634,-1.42017 -1.99752,-1.89838 -13.74191,-0.0873 -27.48349,-0.28973 -41.22595,-0.23873 z m 133.43545,3.69954 c 3.67385,-0.0652 7.06773,2.75505 7.81176,6.32986 1.07414,4.3282 -2.12297,9.20006 -6.54037,9.88765 -1.45794,0.24758 -3.21016,-0.0244 -4.6118,-0.73176 -3.27685,-1.55167 -5.70086,-5.32988 -4.83054,-8.99876 0.86731,-3.63995 4.40072,-6.53293 8.17095,-6.48699 z m -234.96946,0.0271 c 4.51486,-0.0107 8.7622,4.21574 8.23808,8.81317 -0.42252,4.34232 -4.73691,8.13338 -9.15331,7.4603 -3.34926,-0.52014 -6.04991,-3.16952 -6.94602,-6.4183 -1.03507,-3.52251 0.95192,-7.46868 4.20629,-9.03542 1.12327,-0.57704 2.39331,-0.85682 3.65496,-0.81975 z M 320.00621,206.417 c 4.79863,0 9.59726,0 14.39588,0 0.0823,4.42698 -0.26927,8.8983 0.44812,13.28706 0.40877,2.07706 1.74042,4.02514 3.76541,4.8004 2.71059,1.22432 5.64513,1.70254 8.44197,2.66551 7.94104,2.35367 15.57167,5.70319 22.73271,9.85921 2.01786,1.08176 4.07925,2.28555 6.38016,2.60428 2.28006,0.23694 4.40926,-0.93709 6.04839,-2.42174 2.73027,-2.28841 5.11417,-4.95857 7.68942,-7.40265 0.38835,-0.75877 0.88181,0.52257 1.32041,0.73073 6.42585,6.42651 12.85169,12.85301 19.27754,19.27952 -2.97735,3.0971 -6.24983,5.95126 -8.82455,9.40893 -1.25082,1.81392 -1.75769,4.21067 -0.90436,6.29839 1.05598,3.15977 3.01457,5.8741 4.47617,8.83627 3.91537,7.30819 6.73768,15.07666 8.89071,23.07434 0.721,2.23123 1.19167,4.79643 3.13263,6.33857 1.84717,1.56265 4.40734,1.59493 6.69607,1.78809 3.20632,0.0958 6.41515,0.0212 9.6226,0.0507 0,9.59587 0,19.19174 0,28.78759 -4.43004,0.0791 -8.90274,-0.26871 -13.29541,0.44603 -2.07602,0.41638 -4.02977,1.74774 -4.79373,3.78119 -1.20123,2.67972 -1.66864,5.57916 -2.64022,8.33299 -2.31415,7.46275 -5.51398,14.62252 -9.1982,21.50309 -1.38125,2.81148 -3.10768,5.68939 -3.08272,8.92009 0.22523,3.02786 2.58153,5.23537 4.53312,7.31687 1.76989,1.85573 3.56991,3.68256 5.35662,5.52208 -6.76059,6.7613 -13.52119,13.52259 -20.28179,20.28387 -3.63296,-3.48954 -7,-7.37114 -11.3145,-10.04864 -1.86942,-0.83912 -3.86933,0.19435 -5.60205,0.90061 -6.30395,2.83164 -12.2758,6.38827 -18.76398,8.81585 -4.71336,1.86799 -9.63754,3.19967 -14.48257,4.75346 -2.20405,0.72984 -4.41404,2.23466 -4.97148,4.62477 -0.89658,3.13293 -0.56889,6.43545 -0.66065,9.65214 0,1.463 0,2.926 0,4.389 -9.59517,0 -19.19035,0 -28.78551,0 -0.0827,-4.42203 0.26505,-8.88598 -0.42727,-13.27247 -0.41366,-2.07427 -1.77357,-3.98517 -3.77866,-4.77402 -2.85133,-1.34891 -5.96588,-1.89973 -8.90725,-2.92242 -6.30207,-1.94107 -12.43427,-4.45971 -18.20586,-7.65182 -2.92863,-1.49565 -5.76941,-3.18205 -8.78778,-4.49012 -2.19803,-0.7807 -4.62699,0.0132 -6.37789,1.43325 -3.42772,2.48795 -6.24066,5.69054 -9.33763,8.55707 -6.7606,-6.76059 -13.52119,-13.52119 -20.28179,-20.28179 3.07052,-3.19062 6.43825,-6.13673 9.08106,-9.7105 1.21545,-1.74132 1.74013,-4.0654 0.85566,-6.06739 -1.0216,-2.74425 -2.73218,-5.15702 -4.01029,-7.78058 -3.76318,-6.9691 -6.76929,-14.34322 -8.90997,-21.96906 -0.70186,-2.2786 -1.26906,-4.63887 -2.39589,-6.75367 -1.01419,-1.7504 -2.86753,-2.9206 -4.87328,-3.13959 -3.67371,-0.60306 -7.41373,-0.28346 -11.11872,-0.37445 -0.50347,-0.14029 -1.57067,0.28315 -1.71784,-0.21343 0,-9.52472 0,-19.04944 0,-28.57417 4.38887,-0.0799 8.8161,0.2562 13.17243,-0.40434 2.07006,-0.39477 4.01085,-1.70146 4.82389,-3.69641 1.39331,-2.91069 1.95788,-6.10511 3.01203,-9.13515 2.08901,-6.75587 4.97391,-13.23574 8.24798,-19.49496 1.52301,-3.04247 3.22379,-6.05382 4.11021,-9.35844 0.29875,-1.28776 -0.13158,-2.62235 -1.00356,-3.59044 -2.67255,-3.73285 -6.09166,-6.82977 -9.27579,-10.10924 6.76129,-6.76199 13.52257,-13.52398 20.28387,-20.28597 3.06349,2.89245 5.92285,6.02795 9.24017,8.64293 1.77472,1.29587 4.16128,1.75054 6.24244,0.96087 3.40383,-1.04882 6.48618,-2.9714 9.63229,-4.53426 7.64584,-3.95347 15.72022,-6.94217 24.02549,-9.19106 2.27282,-0.61814 4.77513,-1.71598 5.69193,-4.06748 1.1883,-2.93047 0.90287,-6.16747 0.99049,-9.26029 0.004,-1.88971 0.004,-3.77943 0.003,-5.66915 4.79655,0 9.59309,0 14.38963,0 z m -152.26243,39.95914 c -3.35481,0.139 -6.48972,2.42448 -7.62304,5.5897 -3.61596,7.94939 -6.08917,16.35894 -8.36333,24.77227 -4.70799,17.79976 -6.27152,36.38845 -5.03344,54.74654 2.12774,31.31979 12.64621,62.14181 30.78745,87.81854 1.25132,1.88227 2.68622,3.65611 3.78203,5.63441 0.5367,0.94999 -0.3731,1.79208 -0.62528,2.66991 -1.39545,3.52983 -1.93244,7.35942 -1.95202,11.13892 0.2347,7.01015 4.22225,13.54316 9.74006,17.71571 4.22046,3.17094 9.50415,5.08409 14.81194,4.88487 3.86716,-0.29529 7.70834,-1.36425 11.11328,-3.23287 3.82139,-2.19221 6.94818,-5.48799 9.26724,-9.20751 1.77513,-3.2049 2.51482,-6.87956 2.84103,-10.49534 0.46283,-7.74319 -3.32153,-15.50364 -9.53419,-20.10172 -4.02575,-3.09433 -9.06867,-4.76575 -14.13719,-4.80702 -3.1561,-0.0829 -6.26696,0.61417 -9.26534,1.52446 -1.94609,-2.9121 -4.0198,-5.75994 -5.91526,-8.71498 -11.43817,-17.42882 -19.08063,-37.16811 -22.9732,-57.59704 -1.14339,-6.00949 -2.08233,-12.05519 -2.21101,-18.19247 -0.38452,-9.84223 -0.24884,-19.71343 0.55069,-29.50997 0.76403,-7.22649 2.4087,-14.28903 4.22201,-21.31142 1.69706,-6.4804 3.78908,-12.79076 6.1175,-19.06902 0.77472,-2.32735 1.69202,-4.65166 2.01834,-7.09058 -0.13087,-2.52956 -1.97138,-4.59427 -3.9008,-6.04614 -1.0783,-0.75224 -2.39577,-1.18857 -3.71747,-1.11925 z m 150.47623,14.85859 c -5.98851,0.10697 -12.02001,0.90514 -17.64401,3.04222 -13.61763,4.82008 -25.38987,14.71734 -32.32056,27.40812 -2.89979,5.29479 -5.12653,11.01423 -6.17635,16.97284 -1.13317,7.10103 -1.10466,14.37006 -0.19413,21.49447 0.92545,6.10899 3.10074,11.98042 5.93384,17.45138 4.45877,8.47552 11.03327,15.81719 19.0045,21.13299 6.62737,4.4954 14.11602,7.78152 22.00707,9.24642 5.71569,1.13954 11.60388,1.07749 17.38689,0.56329 4.87387,-0.43899 9.7016,-1.45283 14.28559,-3.18495 17.64225,-6.54107 31.68733,-21.94889 36.58893,-40.11118 1.94607,-7.02856 2.44269,-14.43981 1.50923,-21.67088 -0.49358,-4.42118 -1.19004,-8.9374 -3.19263,-12.95722 -1.4435,-2.66837 -4.55385,-4.55638 -7.62591,-3.91417 -2.49366,0.47542 -4.82506,2.15845 -5.88278,4.48573 -1.0219,2.67952 -0.26797,5.58629 0.19407,8.29977 0.93947,4.33098 1.54508,8.82252 1.18407,13.28443 -0.2725,3.94421 -1.25262,8.13188 -2.67665,11.88769 -1.98633,5.25579 -4.7674,10.22465 -8.57325,14.41636 -5.98236,6.74336 -14.21705,11.26815 -22.92399,13.40531 -3.90629,0.72929 -7.87383,0.46368 -11.85102,0.5169 -3.1923,-0.001 -6.42028,-0.28227 -9.44085,-1.38169 -7.86787,-2.49037 -15.11207,-6.94979 -20.52448,-13.24903 -3.90352,-4.50556 -6.78277,-9.83443 -8.68803,-15.52158 -0.94492,-2.58156 -1.48355,-5.29923 -1.53649,-8.05019 -0.0695,-3.77285 -0.15442,-7.55598 0.10564,-11.32335 0.20538,-2.8885 1.19152,-5.82112 2.23381,-8.52702 2.60884,-7.2161 7.36729,-13.54192 13.25631,-18.41602 3.19432,-2.60144 6.91636,-4.83002 10.78767,-6.4309 2.90531,-1.22259 5.9951,-2.14279 9.14188,-2.72935 2.88943,-0.52309 6.00823,-0.77365 9.01323,-0.66385 3.88266,0.08 7.75633,1.14351 11.69375,1.6341 1.77815,0.20718 3.73656,0.22975 5.23812,-0.89937 1.41937,-1.01829 2.63934,-2.39101 3.38023,-3.97884 1.06774,-2.74756 0.002,-5.94713 -1.93418,-8.03477 -1.64177,-1.79133 -4.1325,-2.26301 -6.37155,-2.88459 -5.03426,-1.11975 -10.2437,-1.37506 -15.38798,-1.31307 z m 37.54143,14.87942 c -4.63786,0.26785 -8.25513,5.44376 -6.79463,9.88366 1.05715,3.59758 4.7697,6.23885 8.53514,5.85421 3.09308,-0.17872 5.91904,-2.50648 6.59653,-5.54598 0.98313,-3.68883 -0.98639,-7.96624 -4.55715,-9.42463 -1.17723,-0.54637 -2.48142,-0.82457 -3.77989,-0.76726 z m 80.77908,137.38302 c -7.96047,0.17278 -15.54539,4.80184 -19.61912,11.59746 -3.65363,5.91435 -4.31032,13.41704 -2.26542,20.00865 0.0896,0.61566 0.70202,1.42039 -0.16724,1.68928 -6.62451,4.71426 -13.462,9.15333 -20.70046,12.87316 -14.23368,7.47418 -29.57336,12.92346 -45.38867,15.77276 -7.87613,1.49059 -15.82698,2.23153 -23.83417,2.26659 -12.16279,0.20642 -24.38263,-0.32742 -36.29452,-2.83526 -6.34385,-1.27186 -12.5479,-3.09401 -18.73185,-4.95748 -2.34775,-0.59081 -4.80692,-1.18134 -7.23515,-0.80526 -3.13938,0.60267 -5.30951,3.6648 -5.48576,6.75488 -0.2363,2.73356 1.05141,5.67105 3.56197,6.94888 3.12593,1.82138 6.64885,2.79876 10.09033,3.83317 11.10951,3.12507 22.53529,4.99706 33.98816,6.33757 4.31823,0.52296 8.66876,0.74346 13.01808,0.63192 7.75411,-0.0967 15.50922,-0.44895 23.23024,-1.16719 10.0396,-1.13198 19.9465,-3.32856 29.61486,-6.23839 18.849,-5.71244 36.75962,-14.56556 52.60761,-26.27741 0.77289,-0.55249 1.54578,-1.10499 2.31867,-1.65749 2.79022,1.32346 5.70227,2.54718 8.82037,2.75714 5.70902,0.63518 11.67665,-0.59153 16.4685,-3.82341 4.63223,-2.9573 7.91403,-7.70614 9.60923,-12.88536 1.42669,-4.20919 1.4847,-8.83565 0.22533,-13.09397 -1.17895,-4.42883 -3.62692,-8.52067 -7.09202,-11.53825 -2.54376,-2.41446 -5.59734,-4.39824 -9.05848,-5.16523 -2.50155,-0.67038 -5.08409,-1.09782 -7.68049,-1.02676 z m 1.00461,15.66728 c 4.6554,0.0564 8.50061,4.72763 7.94003,9.29583 -0.3279,3.79162 -3.79581,7.05874 -7.60099,7.04818 -3.58672,0.13241 -7.22028,-2.16121 -8.29013,-5.65392 -1.66022,-4.95994 2.74869,-10.67346 7.95109,-10.69009 z m -234.47757,0.0313 c 4.62366,0.16943 8.30032,4.91714 7.65271,9.43259 -0.50742,4.14538 -4.66528,7.43217 -8.82406,6.89539 -3.12303,-0.36 -5.91433,-2.50405 -6.96785,-5.49324 -1.25998,-3.2554 0.1296,-7.13909 2.95099,-9.10408 1.48311,-1.11113 3.32639,-1.77036 5.18821,-1.73066 z m 39.22966,30.05065 c -2.65249,0.40557 -4.68619,2.48714 -6.07963,4.64959 -1.88588,3.34318 -0.42635,7.9569 2.86631,9.83249 2.80457,1.78064 6.78342,1.64744 9.26199,-0.65628 3.02977,-2.60163 3.45536,-7.71009 0.8089,-10.71994 -1.54853,-1.61207 -3.67205,-2.67823 -5.86717,-3.0564 -0.32775,-0.0466 -0.65967,-0.061 -0.9904,-0.0494 z" /><ellipse
         style="fill:#ffffff;fill-opacity:1;stroke:none;stroke-width:22.739;stroke-dasharray:none"
         id="path22"
         cx="203.72949"
         cy="202.3271"
         rx="12.016217"
         ry="10.067642" /><ellipse
         style="fill:#ffffff;fill-opacity:1;stroke:none;stroke-width:22.739;stroke-dasharray:none"
         id="ellipse22"
         cx="205.91426"
         cy="438.28192"
         rx="12.016217"
         ry="10.067642" /><ellipse
         style="fill:#ffffff;fill-opacity:1;stroke:none;stroke-width:22.739;stroke-dasharray:none"
         id="ellipse23"
         cx="438.59192"
         cy="438.82812"
         rx="12.016217"
         ry="10.067642" /><ellipse
         style="fill:#ffffff;fill-opacity:1;stroke:none;stroke-width:22.739;stroke-dasharray:none"
         id="ellipse24"
         cx="436.40717"
         cy="201.23473"
         rx="12.016217"
         ry="10.067642" /></g></g></svg>
